<mxfile host="app.diagrams.net" modified="2022-02-08T10:34:51.691Z" agent="5.0 (Windows NT 10.0; Win64; x64) AppleWebKit/537.36 (KHTML, like Gecko) Chrome/97.0.4692.99 Safari/537.36" etag="hBjT6GM5kDd9WauRk7Fe" version="16.5.3" type="github">
  <diagram id="OSP3-zvOweL5_SzKogOt" name="第 1 页">
    <mxGraphModel dx="1192" dy="681" grid="1" gridSize="10" guides="1" tooltips="1" connect="1" arrows="1" fold="1" page="1" pageScale="1" pageWidth="827" pageHeight="1169" math="0" shadow="0">
      <root>
        <mxCell id="0" />
        <mxCell id="1" parent="0" />
        <mxCell id="V9ja9C6b1R4F-isLnQs--100" value="&lt;b&gt;筹建大数据&lt;/b&gt;" style="rounded=0;whiteSpace=wrap;html=1;fontSize=16;fontColor=#000000;dashed=1;align=center;verticalAlign=top;" vertex="1" parent="1">
          <mxGeometry x="121.5" y="1560" width="620" height="400" as="geometry" />
        </mxCell>
        <mxCell id="V9ja9C6b1R4F-isLnQs--1" value="门户" style="rounded=0;whiteSpace=wrap;html=1;" vertex="1" parent="1">
          <mxGeometry x="40" y="130" width="120" height="30" as="geometry" />
        </mxCell>
        <mxCell id="V9ja9C6b1R4F-isLnQs--2" value="应用市场" style="rounded=0;whiteSpace=wrap;html=1;" vertex="1" parent="1">
          <mxGeometry x="170" y="130" width="120" height="30" as="geometry" />
        </mxCell>
        <mxCell id="V9ja9C6b1R4F-isLnQs--3" value="OpenDoc" style="rounded=0;whiteSpace=wrap;html=1;" vertex="1" parent="1">
          <mxGeometry x="300" y="130" width="120" height="30" as="geometry" />
        </mxCell>
        <mxCell id="V9ja9C6b1R4F-isLnQs--4" value="AGG" style="rounded=0;whiteSpace=wrap;html=1;" vertex="1" parent="1">
          <mxGeometry x="430" y="130" width="120" height="30" as="geometry" />
        </mxCell>
        <mxCell id="V9ja9C6b1R4F-isLnQs--5" value="可视化系统" style="rounded=0;whiteSpace=wrap;html=1;" vertex="1" parent="1">
          <mxGeometry x="1081" y="130" width="120" height="30" as="geometry" />
        </mxCell>
        <mxCell id="V9ja9C6b1R4F-isLnQs--6" value="BOSS" style="rounded=0;whiteSpace=wrap;html=1;" vertex="1" parent="1">
          <mxGeometry x="561" y="130" width="120" height="30" as="geometry" />
        </mxCell>
        <mxCell id="V9ja9C6b1R4F-isLnQs--7" value="调度队列" style="rounded=0;whiteSpace=wrap;html=1;" vertex="1" parent="1">
          <mxGeometry x="821" y="130" width="120" height="30" as="geometry" />
        </mxCell>
        <mxCell id="V9ja9C6b1R4F-isLnQs--8" value="大数据平台" style="rounded=0;whiteSpace=wrap;html=1;" vertex="1" parent="1">
          <mxGeometry x="951" y="130" width="120" height="30" as="geometry" />
        </mxCell>
        <mxCell id="V9ja9C6b1R4F-isLnQs--9" value="EBC" style="rounded=0;whiteSpace=wrap;html=1;" vertex="1" parent="1">
          <mxGeometry x="691" y="130" width="120" height="30" as="geometry" />
        </mxCell>
        <mxCell id="V9ja9C6b1R4F-isLnQs--13" value="风控&lt;br&gt;金融&lt;br&gt;挖掘&lt;br&gt;建模&lt;br&gt;查询" style="rounded=0;whiteSpace=wrap;html=1;dashed=1;" vertex="1" parent="1">
          <mxGeometry x="951" y="32" width="120" height="90" as="geometry" />
        </mxCell>
        <mxCell id="V9ja9C6b1R4F-isLnQs--14" value="监控&lt;br&gt;预警" style="rounded=0;whiteSpace=wrap;html=1;dashed=1;" vertex="1" parent="1">
          <mxGeometry x="1081" y="32" width="120" height="90" as="geometry" />
        </mxCell>
        <mxCell id="V9ja9C6b1R4F-isLnQs--15" value="用户中心" style="rounded=0;whiteSpace=wrap;html=1;" vertex="1" parent="1">
          <mxGeometry x="170" y="250" width="120" height="30" as="geometry" />
        </mxCell>
        <mxCell id="V9ja9C6b1R4F-isLnQs--16" value="功能权限" style="rounded=0;whiteSpace=wrap;html=1;" vertex="1" parent="1">
          <mxGeometry x="300" y="250" width="120" height="30" as="geometry" />
        </mxCell>
        <mxCell id="V9ja9C6b1R4F-isLnQs--17" value="纳税人中心" style="rounded=0;whiteSpace=wrap;html=1;" vertex="1" parent="1">
          <mxGeometry x="430" y="250" width="120" height="30" as="geometry" />
        </mxCell>
        <mxCell id="V9ja9C6b1R4F-isLnQs--18" value="发票中心" style="rounded=0;whiteSpace=wrap;html=1;" vertex="1" parent="1">
          <mxGeometry x="560" y="250" width="120" height="30" as="geometry" />
        </mxCell>
        <mxCell id="V9ja9C6b1R4F-isLnQs--19" value="申报中心" style="rounded=0;whiteSpace=wrap;html=1;" vertex="1" parent="1">
          <mxGeometry x="691" y="250" width="120" height="30" as="geometry" />
        </mxCell>
        <mxCell id="V9ja9C6b1R4F-isLnQs--20" value="商品中心" style="rounded=0;whiteSpace=wrap;html=1;" vertex="1" parent="1">
          <mxGeometry x="821" y="250" width="120" height="30" as="geometry" />
        </mxCell>
        <mxCell id="V9ja9C6b1R4F-isLnQs--21" value="产品行为数据中心" style="rounded=0;whiteSpace=wrap;html=1;" vertex="1" parent="1">
          <mxGeometry x="951" y="250" width="120" height="30" as="geometry" />
        </mxCell>
        <mxCell id="V9ja9C6b1R4F-isLnQs--22" value="用户（内部/客户）&lt;br&gt;组织机构&lt;br&gt;身份认证&lt;br&gt;appkey" style="rounded=0;whiteSpace=wrap;html=1;dashed=1;" vertex="1" parent="1">
          <mxGeometry x="170" y="287" width="120" height="90" as="geometry" />
        </mxCell>
        <mxCell id="V9ja9C6b1R4F-isLnQs--23" value="菜单&lt;br&gt;角色&lt;br&gt;权限" style="rounded=0;whiteSpace=wrap;html=1;dashed=1;" vertex="1" parent="1">
          <mxGeometry x="300" y="287" width="120" height="90" as="geometry" />
        </mxCell>
        <mxCell id="V9ja9C6b1R4F-isLnQs--24" value="税号&lt;br&gt;登录账号密码&lt;br&gt;企业信息&lt;br&gt;税费种信息&lt;br&gt;资格认定信息" style="rounded=0;whiteSpace=wrap;html=1;dashed=1;" vertex="1" parent="1">
          <mxGeometry x="430" y="287" width="120" height="90" as="geometry" />
        </mxCell>
        <mxCell id="V9ja9C6b1R4F-isLnQs--25" value="进项发票&lt;br&gt;销项发票" style="rounded=0;whiteSpace=wrap;html=1;dashed=1;" vertex="1" parent="1">
          <mxGeometry x="561" y="287" width="120" height="90" as="geometry" />
        </mxCell>
        <mxCell id="V9ja9C6b1R4F-isLnQs--26" value="清册&lt;br&gt;申报&lt;br&gt;缴款" style="rounded=0;whiteSpace=wrap;html=1;dashed=1;" vertex="1" parent="1">
          <mxGeometry x="691" y="287" width="120" height="90" as="geometry" />
        </mxCell>
        <mxCell id="V9ja9C6b1R4F-isLnQs--27" value="输出能力&lt;br&gt;价格体系" style="rounded=0;whiteSpace=wrap;html=1;dashed=1;" vertex="1" parent="1">
          <mxGeometry x="821" y="287" width="120" height="90" as="geometry" />
        </mxCell>
        <mxCell id="V9ja9C6b1R4F-isLnQs--28" value="发票&lt;br&gt;申报&lt;br&gt;查验&lt;br&gt;OCR识别&lt;br&gt;黑名单" style="rounded=0;whiteSpace=wrap;html=1;dashed=1;" vertex="1" parent="1">
          <mxGeometry x="951" y="287" width="120" height="90" as="geometry" />
        </mxCell>
        <mxCell id="V9ja9C6b1R4F-isLnQs--39" style="edgeStyle=orthogonalEdgeStyle;rounded=0;orthogonalLoop=1;jettySize=auto;html=1;exitX=0.5;exitY=1;exitDx=0;exitDy=0;entryX=0.5;entryY=0;entryDx=0;entryDy=0;" edge="1" parent="1" source="V9ja9C6b1R4F-isLnQs--29" target="V9ja9C6b1R4F-isLnQs--36">
          <mxGeometry relative="1" as="geometry">
            <mxPoint x="460" y="640" as="targetPoint" />
          </mxGeometry>
        </mxCell>
        <mxCell id="V9ja9C6b1R4F-isLnQs--29" value="门户" style="rounded=0;whiteSpace=wrap;html=1;" vertex="1" parent="1">
          <mxGeometry x="280" y="490" width="120" height="30" as="geometry" />
        </mxCell>
        <mxCell id="V9ja9C6b1R4F-isLnQs--30" value="AGG" style="rounded=0;whiteSpace=wrap;html=1;" vertex="1" parent="1">
          <mxGeometry x="410" y="490" width="120" height="30" as="geometry" />
        </mxCell>
        <mxCell id="V9ja9C6b1R4F-isLnQs--31" value="EBC" style="rounded=0;whiteSpace=wrap;html=1;" vertex="1" parent="1">
          <mxGeometry x="540" y="490" width="120" height="30" as="geometry" />
        </mxCell>
        <mxCell id="V9ja9C6b1R4F-isLnQs--32" value="BOSS" style="rounded=0;whiteSpace=wrap;html=1;" vertex="1" parent="1">
          <mxGeometry x="670" y="490" width="120" height="30" as="geometry" />
        </mxCell>
        <mxCell id="V9ja9C6b1R4F-isLnQs--33" value="调度队列" style="rounded=0;whiteSpace=wrap;html=1;" vertex="1" parent="1">
          <mxGeometry x="801" y="490" width="120" height="30" as="geometry" />
        </mxCell>
        <mxCell id="V9ja9C6b1R4F-isLnQs--36" value="用户中心" style="rounded=0;whiteSpace=wrap;html=1;" vertex="1" parent="1">
          <mxGeometry x="540" y="640" width="120" height="30" as="geometry" />
        </mxCell>
        <mxCell id="V9ja9C6b1R4F-isLnQs--40" style="edgeStyle=orthogonalEdgeStyle;rounded=0;orthogonalLoop=1;jettySize=auto;html=1;entryX=0.5;entryY=0;entryDx=0;entryDy=0;exitX=0.5;exitY=1;exitDx=0;exitDy=0;" edge="1" parent="1" source="V9ja9C6b1R4F-isLnQs--30" target="V9ja9C6b1R4F-isLnQs--36">
          <mxGeometry relative="1" as="geometry">
            <mxPoint x="630" y="620" as="targetPoint" />
            <mxPoint x="440" y="530" as="sourcePoint" />
          </mxGeometry>
        </mxCell>
        <mxCell id="V9ja9C6b1R4F-isLnQs--41" style="edgeStyle=orthogonalEdgeStyle;rounded=0;orthogonalLoop=1;jettySize=auto;html=1;exitX=0.5;exitY=1;exitDx=0;exitDy=0;entryX=0.5;entryY=0;entryDx=0;entryDy=0;" edge="1" parent="1" source="V9ja9C6b1R4F-isLnQs--33" target="V9ja9C6b1R4F-isLnQs--36">
          <mxGeometry relative="1" as="geometry">
            <mxPoint x="620" y="610" as="targetPoint" />
            <mxPoint x="530.94" y="690" as="sourcePoint" />
          </mxGeometry>
        </mxCell>
        <mxCell id="V9ja9C6b1R4F-isLnQs--42" style="edgeStyle=orthogonalEdgeStyle;rounded=0;orthogonalLoop=1;jettySize=auto;html=1;exitX=0.5;exitY=1;exitDx=0;exitDy=0;entryX=0.5;entryY=0;entryDx=0;entryDy=0;" edge="1" parent="1" source="V9ja9C6b1R4F-isLnQs--31" target="V9ja9C6b1R4F-isLnQs--36">
          <mxGeometry relative="1" as="geometry">
            <mxPoint x="1081" y="640" as="targetPoint" />
            <mxPoint x="801" y="550" as="sourcePoint" />
          </mxGeometry>
        </mxCell>
        <mxCell id="V9ja9C6b1R4F-isLnQs--44" style="edgeStyle=orthogonalEdgeStyle;rounded=0;orthogonalLoop=1;jettySize=auto;html=1;exitX=0.5;exitY=1;exitDx=0;exitDy=0;entryX=0.5;entryY=0;entryDx=0;entryDy=0;" edge="1" parent="1" source="V9ja9C6b1R4F-isLnQs--32" target="V9ja9C6b1R4F-isLnQs--36">
          <mxGeometry relative="1" as="geometry">
            <mxPoint x="620" y="610" as="targetPoint" />
            <mxPoint x="691" y="610" as="sourcePoint" />
          </mxGeometry>
        </mxCell>
        <mxCell id="V9ja9C6b1R4F-isLnQs--46" value="&lt;h1&gt;上层业务系统&lt;/h1&gt;&lt;div&gt;使用基础框架服务&lt;/div&gt;" style="text;html=1;strokeColor=#d6b656;fillColor=#fff2cc;spacing=5;spacingTop=-20;whiteSpace=wrap;overflow=hidden;rounded=0;dashed=1;" vertex="1" parent="1">
          <mxGeometry x="1000" y="480" width="190" height="75" as="geometry" />
        </mxCell>
        <mxCell id="V9ja9C6b1R4F-isLnQs--47" value="&lt;h1&gt;基础框架服务&lt;/h1&gt;&lt;div&gt;使用基础的UI框架、用户、组织机构、权限、角色等功能&lt;/div&gt;" style="text;html=1;strokeColor=#d6b656;fillColor=#fff2cc;spacing=5;spacingTop=-20;whiteSpace=wrap;overflow=hidden;rounded=0;dashed=1;" vertex="1" parent="1">
          <mxGeometry x="990" y="600" width="190" height="90" as="geometry" />
        </mxCell>
        <mxCell id="V9ja9C6b1R4F-isLnQs--48" value="&lt;font style=&quot;font-size: 16px&quot;&gt;基础框架服务&lt;/font&gt;" style="whiteSpace=wrap;html=1;dashed=1;verticalAlign=top;fontStyle=1" vertex="1" parent="1">
          <mxGeometry x="230" y="760" width="650" height="260" as="geometry" />
        </mxCell>
        <mxCell id="V9ja9C6b1R4F-isLnQs--49" value="前端UI框架" style="rounded=0;whiteSpace=wrap;html=1;dashed=1;" vertex="1" parent="1">
          <mxGeometry x="257" y="834" width="120" height="60" as="geometry" />
        </mxCell>
        <mxCell id="V9ja9C6b1R4F-isLnQs--50" value="用户管理" style="rounded=0;whiteSpace=wrap;html=1;dashed=1;" vertex="1" parent="1">
          <mxGeometry x="422" y="834" width="120" height="60" as="geometry" />
        </mxCell>
        <mxCell id="V9ja9C6b1R4F-isLnQs--51" value="组织机构管理" style="rounded=0;whiteSpace=wrap;html=1;dashed=1;" vertex="1" parent="1">
          <mxGeometry x="422" y="922" width="120" height="60" as="geometry" />
        </mxCell>
        <mxCell id="V9ja9C6b1R4F-isLnQs--52" value="登陆/注销" style="rounded=0;whiteSpace=wrap;html=1;dashed=1;" vertex="1" parent="1">
          <mxGeometry x="570" y="834" width="120" height="60" as="geometry" />
        </mxCell>
        <mxCell id="V9ja9C6b1R4F-isLnQs--53" value="角色管理" style="rounded=0;whiteSpace=wrap;html=1;dashed=1;" vertex="1" parent="1">
          <mxGeometry x="257" y="922" width="120" height="60" as="geometry" />
        </mxCell>
        <mxCell id="V9ja9C6b1R4F-isLnQs--54" value="权限管理" style="rounded=0;whiteSpace=wrap;html=1;dashed=1;" vertex="1" parent="1">
          <mxGeometry x="728" y="834" width="120" height="60" as="geometry" />
        </mxCell>
        <mxCell id="V9ja9C6b1R4F-isLnQs--67" value="身份认证" style="rounded=0;whiteSpace=wrap;html=1;dashed=1;" vertex="1" parent="1">
          <mxGeometry x="570" y="922" width="120" height="60" as="geometry" />
        </mxCell>
        <mxCell id="V9ja9C6b1R4F-isLnQs--68" value="鉴权" style="rounded=0;whiteSpace=wrap;html=1;dashed=1;" vertex="1" parent="1">
          <mxGeometry x="728" y="922" width="120" height="60" as="geometry" />
        </mxCell>
        <mxCell id="V9ja9C6b1R4F-isLnQs--73" style="edgeStyle=orthogonalEdgeStyle;rounded=0;orthogonalLoop=1;jettySize=auto;html=1;exitX=0;exitY=0.5;exitDx=0;exitDy=0;fontSize=16;entryX=1;entryY=0.5;entryDx=0;entryDy=0;" edge="1" parent="1" source="V9ja9C6b1R4F-isLnQs--70" target="V9ja9C6b1R4F-isLnQs--69">
          <mxGeometry relative="1" as="geometry">
            <mxPoint x="355.5" y="1387" as="targetPoint" />
          </mxGeometry>
        </mxCell>
        <mxCell id="V9ja9C6b1R4F-isLnQs--69" value="前端UI框架" style="rounded=0;whiteSpace=wrap;html=1;dashed=1;" vertex="1" parent="1">
          <mxGeometry x="226.5" y="1323" width="120" height="60" as="geometry" />
        </mxCell>
        <mxCell id="V9ja9C6b1R4F-isLnQs--70" value="EBC" style="rounded=0;whiteSpace=wrap;html=1;dashed=1;" vertex="1" parent="1">
          <mxGeometry x="435.5" y="1323" width="120" height="60" as="geometry" />
        </mxCell>
        <mxCell id="V9ja9C6b1R4F-isLnQs--71" value="用户中心" style="rounded=0;whiteSpace=wrap;html=1;dashed=1;" vertex="1" parent="1">
          <mxGeometry x="435.5" y="1170" width="120" height="60" as="geometry" />
        </mxCell>
        <mxCell id="V9ja9C6b1R4F-isLnQs--72" value="BOSS" style="rounded=0;whiteSpace=wrap;html=1;dashed=1;" vertex="1" parent="1">
          <mxGeometry x="621.5" y="1323" width="120" height="60" as="geometry" />
        </mxCell>
        <mxCell id="V9ja9C6b1R4F-isLnQs--74" style="edgeStyle=orthogonalEdgeStyle;rounded=0;orthogonalLoop=1;jettySize=auto;html=1;exitX=0.5;exitY=1;exitDx=0;exitDy=0;fontSize=16;entryX=0.5;entryY=1;entryDx=0;entryDy=0;" edge="1" parent="1" source="V9ja9C6b1R4F-isLnQs--72" target="V9ja9C6b1R4F-isLnQs--69">
          <mxGeometry relative="1" as="geometry">
            <mxPoint x="445.5" y="1536" as="targetPoint" />
            <mxPoint x="584.5" y="1446" as="sourcePoint" />
            <Array as="points">
              <mxPoint x="681.5" y="1440" />
              <mxPoint x="286.5" y="1440" />
            </Array>
          </mxGeometry>
        </mxCell>
        <mxCell id="V9ja9C6b1R4F-isLnQs--76" style="edgeStyle=orthogonalEdgeStyle;rounded=0;orthogonalLoop=1;jettySize=auto;html=1;exitX=0;exitY=0.5;exitDx=0;exitDy=0;fontSize=16;entryX=0.5;entryY=0;entryDx=0;entryDy=0;" edge="1" parent="1" source="V9ja9C6b1R4F-isLnQs--71" target="V9ja9C6b1R4F-isLnQs--69">
          <mxGeometry relative="1" as="geometry">
            <mxPoint x="256.5" y="1367" as="targetPoint" />
            <mxPoint x="395.49999999999955" y="1488" as="sourcePoint" />
            <Array as="points">
              <mxPoint x="286.5" y="1200" />
            </Array>
          </mxGeometry>
        </mxCell>
        <mxCell id="V9ja9C6b1R4F-isLnQs--77" style="edgeStyle=orthogonalEdgeStyle;rounded=0;orthogonalLoop=1;jettySize=auto;html=1;exitX=0.5;exitY=0;exitDx=0;exitDy=0;fontSize=16;entryX=1;entryY=0.5;entryDx=0;entryDy=0;dashed=1;" edge="1" parent="1" source="V9ja9C6b1R4F-isLnQs--72" target="V9ja9C6b1R4F-isLnQs--71">
          <mxGeometry relative="1" as="geometry">
            <mxPoint x="665.5" y="1488" as="targetPoint" />
            <mxPoint x="824.4999999999995" y="1408" as="sourcePoint" />
          </mxGeometry>
        </mxCell>
        <mxCell id="V9ja9C6b1R4F-isLnQs--79" style="edgeStyle=orthogonalEdgeStyle;rounded=0;orthogonalLoop=1;jettySize=auto;html=1;exitX=0.5;exitY=0;exitDx=0;exitDy=0;fontSize=16;entryX=0.5;entryY=1;entryDx=0;entryDy=0;dashed=1;" edge="1" parent="1" source="V9ja9C6b1R4F-isLnQs--70" target="V9ja9C6b1R4F-isLnQs--71">
          <mxGeometry relative="1" as="geometry">
            <mxPoint x="376.5" y="1283" as="targetPoint" />
            <mxPoint x="476.5" y="1410" as="sourcePoint" />
          </mxGeometry>
        </mxCell>
        <mxCell id="V9ja9C6b1R4F-isLnQs--82" value="服务依赖" style="text;html=1;strokeColor=#d6b656;fillColor=#fff2cc;align=center;verticalAlign=middle;whiteSpace=wrap;rounded=0;dashed=1;fontSize=16;" vertex="1" parent="1">
          <mxGeometry x="596.5" y="1234" width="70" height="30" as="geometry" />
        </mxCell>
        <mxCell id="V9ja9C6b1R4F-isLnQs--83" value="ui框架依赖" style="text;html=1;strokeColor=#d6b656;fillColor=#fff2cc;align=center;verticalAlign=middle;whiteSpace=wrap;rounded=0;dashed=1;fontSize=16;" vertex="1" parent="1">
          <mxGeometry x="301.5" y="1249" width="80" height="30" as="geometry" />
        </mxCell>
        <mxCell id="V9ja9C6b1R4F-isLnQs--84" value="&lt;font&gt;数据库独立，服务部署独立&lt;/font&gt;" style="text;html=1;strokeColor=#d6b656;fillColor=#fff2cc;align=center;verticalAlign=middle;whiteSpace=wrap;rounded=0;dashed=1;fontSize=16;fontColor=#CC0000;" vertex="1" parent="1">
          <mxGeometry x="580" y="1140" width="248" height="50" as="geometry" />
        </mxCell>
        <mxCell id="V9ja9C6b1R4F-isLnQs--85" value="上层业务系统源码中包含此ui框架，只能按照事先约定在相应的目录开发自己的ui页面&lt;br&gt;构造时会拉取此ui框架的最新代码，和业务系统相应目录的代码合并后进行编译构造" style="text;html=1;strokeColor=#d6b656;fillColor=#fff2cc;align=left;verticalAlign=middle;whiteSpace=wrap;rounded=0;dashed=1;fontSize=16;fontColor=#CC0000;" vertex="1" parent="1">
          <mxGeometry x="167.5" y="1450" width="629" height="60" as="geometry" />
        </mxCell>
        <mxCell id="V9ja9C6b1R4F-isLnQs--95" value="" style="edgeStyle=orthogonalEdgeStyle;rounded=0;orthogonalLoop=1;jettySize=auto;html=1;dashed=1;fontSize=16;fontColor=#000000;fillColor=#f9f7ed;strokeColor=#36393d;" edge="1" parent="1" source="V9ja9C6b1R4F-isLnQs--86" target="V9ja9C6b1R4F-isLnQs--87">
          <mxGeometry relative="1" as="geometry" />
        </mxCell>
        <mxCell id="V9ja9C6b1R4F-isLnQs--86" value="&lt;font color=&quot;#000000&quot;&gt;数据汇集&lt;/font&gt;" style="rounded=0;whiteSpace=wrap;html=1;fontSize=16;fillColor=#f9f7ed;strokeColor=#36393d;" vertex="1" parent="1">
          <mxGeometry x="170.75" y="1640" width="120" height="60" as="geometry" />
        </mxCell>
        <mxCell id="V9ja9C6b1R4F-isLnQs--96" value="" style="edgeStyle=orthogonalEdgeStyle;rounded=0;orthogonalLoop=1;jettySize=auto;html=1;dashed=1;fontSize=16;fontColor=#000000;fillColor=#f9f7ed;strokeColor=#36393d;" edge="1" parent="1" source="V9ja9C6b1R4F-isLnQs--87" target="V9ja9C6b1R4F-isLnQs--88">
          <mxGeometry relative="1" as="geometry" />
        </mxCell>
        <mxCell id="V9ja9C6b1R4F-isLnQs--87" value="&lt;font color=&quot;#000000&quot;&gt;数据查询&lt;/font&gt;" style="rounded=0;whiteSpace=wrap;html=1;fontSize=16;fillColor=#f9f7ed;strokeColor=#36393d;" vertex="1" parent="1">
          <mxGeometry x="364.5" y="1640" width="120" height="60" as="geometry" />
        </mxCell>
        <mxCell id="V9ja9C6b1R4F-isLnQs--88" value="&lt;font color=&quot;#000000&quot;&gt;数据统计&lt;/font&gt;" style="rounded=0;whiteSpace=wrap;html=1;fontSize=16;fillColor=#f9f7ed;strokeColor=#36393d;" vertex="1" parent="1">
          <mxGeometry x="558" y="1640" width="120" height="60" as="geometry" />
        </mxCell>
        <mxCell id="V9ja9C6b1R4F-isLnQs--97" value="" style="edgeStyle=orthogonalEdgeStyle;rounded=0;orthogonalLoop=1;jettySize=auto;html=1;dashed=1;fontSize=16;fontColor=#000000;fillColor=#ffcc99;strokeColor=#36393d;" edge="1" parent="1" source="V9ja9C6b1R4F-isLnQs--89" target="V9ja9C6b1R4F-isLnQs--90">
          <mxGeometry relative="1" as="geometry" />
        </mxCell>
        <mxCell id="V9ja9C6b1R4F-isLnQs--99" value="" style="edgeStyle=orthogonalEdgeStyle;rounded=0;orthogonalLoop=1;jettySize=auto;html=1;dashed=1;fontSize=16;fontColor=#000000;entryX=0;entryY=0.5;entryDx=0;entryDy=0;exitX=0.5;exitY=1;exitDx=0;exitDy=0;" edge="1" parent="1" source="V9ja9C6b1R4F-isLnQs--89" target="V9ja9C6b1R4F-isLnQs--91">
          <mxGeometry relative="1" as="geometry">
            <mxPoint x="424.5" y="1940" as="targetPoint" />
          </mxGeometry>
        </mxCell>
        <mxCell id="V9ja9C6b1R4F-isLnQs--89" value="&lt;font color=&quot;#000000&quot;&gt;数据建模&lt;/font&gt;" style="rounded=0;whiteSpace=wrap;html=1;fontSize=16;fillColor=#ffcc99;strokeColor=#36393d;" vertex="1" parent="1">
          <mxGeometry x="364.5" y="1760" width="120" height="60" as="geometry" />
        </mxCell>
        <mxCell id="V9ja9C6b1R4F-isLnQs--90" value="&lt;font color=&quot;#000000&quot;&gt;数据加工&lt;/font&gt;" style="rounded=0;whiteSpace=wrap;html=1;fontSize=16;fillColor=#ffcc99;strokeColor=#36393d;" vertex="1" parent="1">
          <mxGeometry x="558" y="1760" width="120" height="60" as="geometry" />
        </mxCell>
        <mxCell id="V9ja9C6b1R4F-isLnQs--91" value="&lt;font color=&quot;#000000&quot;&gt;数据挖掘&lt;/font&gt;" style="rounded=0;whiteSpace=wrap;html=1;fontSize=16;fillColor=#cce5ff;strokeColor=#36393d;" vertex="1" parent="1">
          <mxGeometry x="558" y="1868" width="120" height="60" as="geometry" />
        </mxCell>
        <mxCell id="V9ja9C6b1R4F-isLnQs--101" value="第一阶段" style="text;html=1;strokeColor=#36393d;fillColor=#f9f7ed;align=center;verticalAlign=middle;whiteSpace=wrap;rounded=0;dashed=1;fontSize=12;flipV=1;" vertex="1" parent="1">
          <mxGeometry x="170.75" y="1820" width="80" height="25" as="geometry" />
        </mxCell>
        <mxCell id="V9ja9C6b1R4F-isLnQs--102" value="第二阶段" style="text;html=1;strokeColor=#36393d;fillColor=#ffcc99;align=center;verticalAlign=middle;whiteSpace=wrap;rounded=0;dashed=1;fontSize=12;flipV=1;" vertex="1" parent="1">
          <mxGeometry x="170.75" y="1857" width="80" height="25" as="geometry" />
        </mxCell>
        <mxCell id="V9ja9C6b1R4F-isLnQs--103" value="第三阶段" style="text;html=1;strokeColor=#36393d;fillColor=#cce5ff;align=center;verticalAlign=middle;whiteSpace=wrap;rounded=0;dashed=1;fontSize=12;flipV=1;" vertex="1" parent="1">
          <mxGeometry x="170.75" y="1893" width="80" height="25" as="geometry" />
        </mxCell>
        <mxCell id="V9ja9C6b1R4F-isLnQs--105" value="" style="shape=image;verticalLabelPosition=bottom;labelBackgroundColor=default;verticalAlign=top;aspect=fixed;imageAspect=0;image=https://help-static-aliyun-doc.aliyuncs.com/assets/img/zh-CN/2616360261/p269916.png;" vertex="1" parent="1">
          <mxGeometry x="80" y="2040" width="1177.78" height="530" as="geometry" />
        </mxCell>
        <mxCell id="V9ja9C6b1R4F-isLnQs--109" value="" style="shape=image;verticalLabelPosition=bottom;labelBackgroundColor=default;verticalAlign=top;aspect=fixed;imageAspect=0;image=data:image/webp,UklGRpJLAABXRUJQVlA4IIZLAADw4wCdASpWAhYBPm0ylkgkIqIhJLUrGIANiWNu/E85QV9Y0UoYD9iekT5v+G9MfkvuK+i/evZFtCMk+Xz8T/I+cv/Dfsv/mPgb+lf/L7gX6n+pv/afsb7lP69/vvyG+AP8l/x/7Ve+3/vfVZ/wv9r+QHyAf6H/a///29vUZ9AX9rfTT/dD/r/KV/Xf93+3n/e+SD9q////4PcA///tjfwD/y9af0z/tvaX/kv7r+3Pn7+K/L/2L+1/sv/bfa4/zvAb0t/q/Qz+TfbP8z/gv3X/wXsB/l/7Z/ev1/9B/yv9l/4H96/cn4Bfxj+Sf4D+w/vH/cvVf2Nuw/5v/M/5X2AvU35f/oP7h/ov/T/kfhI+D/2P92/cz3J/gP8T/sfcA/Uz/N/cF7TXgi+l+wD/L/7L/q/8B/oP/R/lvpf/qP+5/ov9f+4Ptu/QP8f/3v8v/sP2w+wn+Vf1n/i/3//R/tj/////95H/z9yH7k/+f3Tv2e/9hYpHX7mNVZ138uYzGJmnn6r9ncO5CkdnG2cqhNwxWXj5m2WSc7hLCA8YdfuY1VnXmm/2zvwd8kCYv3mVaI6wFZOchayecXS/VJXpDkOqPycYtVpf4GgTXHlx6bAZ1ZBzeGXzoZ0bSAoD7+XHk4gifGJbhNnnF0v2MAcIdB3USO6Dv8F/LaPruGAB0Jvusl2pf7i2KNMzkH551zGcN8YhBmgWGeo+MwX8cx4MwJMxh1+5jNgp6KJyXcl3JgrefS/cxqqtaNIH1jj3RqfjSIkhcWbQ33X2AcxnlIOjQ/BjlWwWUdig8toaJmlNV0MkcEDUQ8cGRN/8sf8pUlJjuiTgBTFWqjTSmNjsKUIdYBw+irtkZc0dSSxsfpNgJhOD6uJ57ZteZJ5XHCxsYJnzGh7d+sPxYYjA1RP+v4Q1D923S8oIYuH+SJaN2aCjfMzQVHDyzeaUTR6XMT9JvLYBbbjkYcByuxIb+HVrovkOO+G7l+SOzXVkm/msiiXgbJXP23mCfKMA8ekVqv9O5c9IaZ48fAz7kxEthkj8Vcky/H7+VkEHw9a4rs3Xy9g6eSx0Dgf35ItDCHUnrRgzp5YtA8qr4xskbWakEnDzWQpnPDMgoe4cg5iAGOjnMitVaxoWBsRYpNDBSYWwrgtwtPKX96SI11BgsWS8kFNKtrIArUK+m7tI5e+rG2RgVV0gzxoOdSbo4NngHJvC4l9I24DEKUaMEmi3bPOLpfBKGVsH+LeOl7fP//O2wwVuTptcLWZI7BRg53mRufHSe9/PgMBw0siEkNKywBMCKHLOSPWvKXX9m5w7j0VOo0/u1yjORAzZzydDoe8LqLLW942BzwAmE8AQ6I8yo3OKcFIAXf+Nuv3MaqoaqNFlTOJeJpST+dDKPc2Dzxv5rOmNOLfl/lEsTUpbEVMfERXJVcum1Ixsgm1jOPKCfXfBkMx19zsmY0svTeJsbnHXnFwCOYOZLQvom1JwPV/Uix32IDEW43LOAJfmWxGD58cgPXB85XODXDLteYXGwTRMXY2l8YEe3PNP0B8qliabP2M97HutiWIqFKJDXisrMrhNEQJxFUD25w223wTkRqWAPRT8nYY4jiS2Kuknu9/QhcgZ/FVnVH0WuMCLWnPpIXva1dt9PO/Wt//2RQON3mdY4eoZou2ZQ+47+3SE/W7L6GcDcMsAVBVyTfp5eV4OUUQbpmpbuQWYeTEkFRFtDnR+7h8BuBw3GtQM/iqzqep5zCOOr0qf5/QIR9yxzhFKgGjprGybFUuCcWL9LQaQWI1AVLMQwo7aAfrS/7J5DiiCLkks/EctaYQNcCbwOzzi6RRhqwMKfroZnNGeYdUHhUmJsHRwmoc5uFdm8U3eSHJLjQT58UfPnyWm9d0s6HxNHSIzNdmU9WFQ9dV0rXPPdEnFIfZVFjIT6Xm96ONOXtmHGHX7ify5wurqWIXNZpV/Vs8Zt0EBEava6I8qZWUTqeZeBkE3zyzpH63CV4AXectTB6pHC8D8VaS2Es4LUaICCcVQSTmJnegnqUmryqs684kqhTyf3yz5WBW9HXlB/6E/f7XrQE71+NNUyIvsBUWU4K9CSVdKYFEsjWA5silVPzwAT+CVZnoQQF9WWcd1X/K21BLETulvEjuk1CyKV5TfiD0QydLw60Ev+ONgQGYcuUdQZsZdwOvjEZWaT34mQEd958nOPFnTZ7kX/QQeOpYXcKTQZDW0ZSug2Mtf6M8CtAz+KrOvOMQAnAe2hGB1DX9Mem7pzXT8FiqTGF36yBjpoiGjmakDMdcXrhzdtGsv/91a9caJnNRk/62fzWfxSHHXuMhx15xdL90lqGVah7GOtJ24/Xxs7MtLO4WaelpSjF+fBY3f/C36aANt45YuAHfkBNlJF3eLAY4v7ct+5jVWgZ/FVnXnF0v3U1LVXaMe3pKCXM0bPE5OY8px2Lc6FZ15xucYgAD+/4lAG6vvsHz24jMt69mmSQ21Rh4yWsxJ6kOYm7k2cS7M1IL9l6XW8wUV3AaaJDfZevuNAJ8vXeOBmV8sfaLetLxyBlMaK3j2+Biy4kB2xj9Pz6sachLyYnuwUkpiPu49QckWrbclaBGUs27whTb/Ly1a52MPcGLmUwqwXzdmvc4NL6n+phzmsXHbWT4Rubz+lsspYd6WLJ2kWNV7ZzoOaFiMvspnsbfMdduMfrGWa9UStakwU6nurLsr682eJhqU2RHVNfM7tUPyiudbnSbfdIiMTuOr40hIPwodXV72UgeMTCSMZ3qQ3guPhI0o77jsdBN4ekbTXI7+0K0nHOsVTQCwzMIsHBb8AM+znT2Go6cCpoamJJx5AdP4v4HLLwozxw8KOtonMdYOxfN8JdSNFVFaORjNYTBGi2cd9COcAZdWYV84oxn1bwZN/ZIF0lSTC5FFkja68+3Oocd5XPxndFldpHP8eqWJ6S72od+ppWwfP4IRPZ5CPFUdupBmE8uqb+82fzNowvtdwQSI0F/wc4JhpzXLu5GW/cP/dwfnLoE8EXODD5apV5cqhmhg4ivZA5hhkqW/w6RQLAyQkpFNziT2UhgrJjcFkdVZyxfUuSTKQALW5zAkj+bcAQOyQkzRC5ODQYA4q51hwGI0yhJGkcRvP0sxrJb63UEaDKM5v95b+FJ9cUUh8lDnXElnIgE+CyGT1XoIFMc5uCq3du5weP9JI9Lsf5gf6YKQimN+DE4uLMHT5Sx8P4XxNrWI1bBHGQBmWBKfChVsp3imjx1OJclOY5Bz/tDD+Qll0VegxovZNXUcP6/0XV5ocA/5FSvKJ7b76e9QQJfV7AFjeiPZ5g3SsVEiTyGPNqnHgNkIXoPPdDWgG8hkCy/D6aztMFKKvPkyJSgd0rWDmg0H8XMOMYDa99rXPzAN3VAYl3iqAXzGPsBi5dfLqu6VTgL3S861Dum9t5izX5Mc934jEdz21LHhh6TkGU7PwD/y8N9ZOWPyjZDCd8FdsWmE0Sj7tmq/8ZKo3Zebg1+BxPV50BdskvVv47XMtVA/4trsFZKFd9J6en2ftda5xEC/GtzBXEvkTVXdEFrEqoqIOkYLXeAylQd1PmsgPgwZ/WgFRsMcUTRC4evcBpbPGMw/366aSOiMvWGx/wBl/RTTMjwc+jxY5fm9i7s7eYHGRutfmQw5wuheYDTi2UGDCDYum5jWYeLGZAbk+Vu2PQiHh0DiqdzotGOZgotBzH0JbX/ukFieOuTP49JJ8+LSJfId1RVyAb4o11buiif74BZCRLd0updq3Rnu9EkF4fle71pquofi8n7T9E1BUqgw1zKnt7369gMbPwCk3rgHPFyIa22Sx6udVOwJG/YLXdzltIC5zEj4m4YSSCmDzHrt01bER2YaUfI/EjLHEKbm/sctDe1/hYBM8cjnumCdUPNOAAX7n0+f9lP5Zm2/BBkiZU/Cr6OyQSwMbQkbtkFnaRe3zQzbhi1hyOVozR8/dWNk44zV8YWQIchuHHxJDsJVAqz6iaaI4CqyrJfyEyp2sqckKm9J5JHXd3KfcZXuvFnYJrsiLy4jLPJABBVBEL7yO3V9W1KmwZkKsTYxTnSVDGAo+CtAc0Wb1f002PPzedoUrXhhrHUzq0dIRMUC+Qxoq7uuqlEvn8CuEYfE2SFHLSZtqB5cGVYayayli1XVUrc1bZNnvpDf0Ai2bMwPr17d68VPDXagrs2vWkYrpLnrS/C1V8/MlyUlDONagBVWT+gq9UaIdOQssmC96MvagVaFsqHjwqo3yHug7nMGG62sLVUwX8GM28sSfDm874Kcs/4lSkzYfuiJ6RvlOhzgAAS6suxfXq6+QFGFcLjggNyP9T/aLChR9JAlaJs2G6u+C+/R59WJFZapZhLp1SS6RdvnGMeUaQzj4OUuvU+mpKQ2jESGUkJ9yUyXF6leabuTe+d0RVb5yW+bQDqe2HzFpQqasZmapkVKeFhDz6Y8KHpfzkSUrlG3upHbeF1xczu94tUsOOttNPdxGhbHvmmih0sDN+onKcw+oAPW++jKDg6JkNa1HbicC2P+1ejjmnL8Y5vRPwsoX2E2CVZ3RMBNuUgeMWccsyefXnVnicJVWHllhL9uvJ1AqlBL5uzuMS2q6gU7B83b/jpl6WAAC34twLdC0u9kBCbReUXjYSwlV7jXJHd1lzJ39rs2NMuDv9TKaoAHBjCacu26wbjZdoDK4GyTa3J4k0gTwjblTks0XjU+iJGcTmx0LbOZVecTqwYJNww5MLq8RYDslXLtoTVlaGlJtpY3qVUoCfLdFhlLUVYJ6KuauC/EmjvlSSmDn6eY0gWZND09IH5bYgnTA3lRQTsPb3R+iwQlMTZnngiT5S5wxpgzBWntYzBms9lRdM65Thy/aPQ1PrmoeJfGkGqLhqRpMF8XWaw1OodxDELTtBRCmAO0A0VHKD4k5yVwDC1s3f/7wIqhvdNj6We1nVnQlvo76r9LHOG6RUwM284aOgT4QYQ2GpuGbYaW2jkwvqWGw/Z3zs3wFpBFaI9lCpWZbfjGrzJovj7G1sLR4fkqGKvBzrSyL1uyabrBF1evcvck+ZTF4MPlkISsX3b6vFcw5AbYFAj40h/zBLOKc1AXKaOyeo4N8cJ4urY0BoE7OXKJXh6H6W+OuJgxYPFR4MlCLB3FGSG/PiAf2lxjq8+DU4EqrCz5ALJ7H8PldbsInllpGOuBFW7IqisiOBmzYpGINBuOe0eFn7VtVY/+TXnjv/eWR2oWr+W4AMlnhHok9K1/vGHkAVOCRGiKX5mQvSxxZfwB40Nk9ZIZtZwlk7YKVbjLUN2hWvSq/U0lqE2APnfk3CEqKlgTzZUJIVO+gVID8A6lL6Xp9c81wSoSIY0IsqdKZ/69acaiVlkgG9w6rAlQ7ayqZEzkdvFN9Sm9QMAXuPc+WX9AUMB8SVT32oio7HTMsm2SkIVkBPRQWYLI4UXZrmJe/+Ihb/INRnT3aMRZteu6ipAbHoc234v6U+6L4/z9ZO9uisgHeb2OpMwWXJ7RJ3cI+osnEt8Li94BPix39imseeBhVv1b5hHz2qwc5iGb/cDyjuWeA00R5AGS98IwE9dETnobL4YV+PcJMMRvYUo8OWv52buMyBOAQW6JpN7mOPO2D2R20l59Jyr0UtQFcKSKjP0XnBHORDiPlGBN0WB+XJy3DeNhAzhOXa0F97gQFgp0tycr4wWkGUvtY6zbie9/csDqL3h++CckQycTLlxT8/pNPm0u40GEoNkq0fTYH4Kl4rHBJY6lMylHLyiH+2Dxvg74vp58kXSFJzs5tRxCkycmPUV8rkkyygISeozsJ5JrdccSzJ01BRzZNjXbTJz62oKhEgr1EH/9JGtE0rUkdXHOWckn5rw+hoI1M23IM/D+pr4yqRTFaESovnI25KwVMGsXFEP1WENb5S0K9529RxBRegSjmiflu6RUGL0qWSCQ6EBq1uIWJQrEmVbyMXZbNtoa+OTBrj3p9IjRe3ZAkJivn/uo85/bzgXAOYIkHQNyk/f7YCl87ZG+Xsf6o43AcXLB6ddDwG93ACTvYxKPEICdvuOparyreWtDqOZfbNOklXWFI6vI2VH/AIOwh4BBdAKJDmuwGyteFJG/2b6r0Wr90r/G77Hk0p7HbmBAj31fIxxd8MkxRzMHDwZnBfkipB48dj4JYG6ri3wh0Skr97fyqrfLq8vuFtR7pjE7gSlEjrqDrKAw9+MrKGfhPcQSEw5qLP6LDFZ2nQ15mlDVxljWF2WAKAtN8Oy5JougeZCwaWjBXY2kQPSZhDrUH5a+CH2jGQAtEPejibZuatfKteBH+FgctG2V6uRsXtPW9vpCm8pdu59eQUu6jWfNZq7ogTc+3vMxIL1v/FYy/ebATmP1/SDB3eFPn7CwdEJujlCr9r318TyUvO7G5I4hIxczGAs26jM0tBAhg8eWG+CZpcJ9dorTtSzh8/7XdQVIWr0VM8k6FIKVfCdjrI2NWw9qofyC1JH/7jfq14koKidehD5/0p43oSwGbaikaPAu4ieBbupi6DCmKbEwvdyqfosAC8ylUcn5Hamoee8gxEYWirweZUzecIZLP3AdFsVqsYMCyf+FbRkQHEHNpF4ghwPAvEVpy2pH22jFdqkEmrSPHHFhxxRgb4kERH1u+D8oBWUfasNbWkcwKmu/Qa/WqzAxWHG4K25QYyXyOzUpDynfrGYM8wu26wEC2Lzj7w4JWM3oC7Etb1XIlRcscIyjQC1lrPITYeoo/fHMgARP+iWzCfK9iy7CYKu0u36i8IYZ1U5H4fAN1HYYMdV6xxRnoTSqiXFxGP1rteWOBVf5lY8ASfpi9CRxIe87VWjFm7c70NMO2x5sSxZ9ST4MvPbTpN2jOvDoPopOy0wcN17o5sOAazoDVLpKfiOnFGRRcliJ5yn8xNLrKxA6Rg6sZe/OlnS+luzkfhvQNj45NrIl/cMkj2IH1UW1v1ie8SPegQQx9p3+aZ5lzydIGPTmqv3BvEVFBxuuSvlzw2gS8D9r6v0XDw7ZgUJG0pJ/xRz8274pH6Bier0e4vwjJe+Ljdzq/0N4vPoUGUbnfU3tY/rkxwsfvbRRlnK9KFLdVJPUerE3fjHzLy4jXVoge6b0Hg4t9yhqioT+LSHQlbSL7BDWk7wsghYHf0uZ1b/OX3OBJy0cBe7T0oXlVFiIR8GxSzOUTIIYeNeCp752Q/sA3UuqVxAUP0cA/fkYlsGG8Zn8fYY+kulBNAJUa6vqQQQYP3eEY074Psy+ZGZiAKlSSnZps0lL9M+mcwmR/eO/VAPswnGxY40l4Nluq/RmsLb+2WuSbXIkPbLTCntoi/lrXRHyFDtuayIhoSX6t48TAPDwyxsKDC43/xP8VSXra0iUJJ3BF8T1F/kPfaO6sHMIzioWBaGctzZQY28p2PaF24QZMPVtFBXmFR7K7NIPaS40NrfGHhqQ228RsAcJJMvtXmKtEm5fDYduAcWSwG9UDgtmOkK28dMbbh/hPTwLjEb7vdklA9e0BaKtE1FpgPKvm3VnnqaKb38CQH3I9SZnlf4i2AHnVV8AbiUKK4885cf3bhsWCFXCqwNZW5+wuuQDvF2d9MQUZ9Q9hANQsIJYIZFnNmM/GBUy5sfv98+4oy4Jg9ZJ7z/1DccMbPHhCb4Rmiu5wzbSx8GugWBYc1GO9iojy7fISAxHazpVbjyh0dmwS6fLMr6U4OihKut+A/b8QASmuo4PidMmWv/LcWUGN4AqM+7T4tzAqwR29X9GkFJDk9g6/hqOplN888QDeVW5VrYR+CqKaOcDl54evjwzUKnx9nM5DdmZNLNIWEEnxqx/bYmNpjDyL51ErLNOZVRfeOyYShIM+EDqy2oydGfO0NcA7Teb5zakCxOzO1hqmKLDPar8bqLdFuSOsDweeS9XR5E6U9CIh6TuF/1IsPcg1ra6Jjh45aDdwZlBQzfdp64l1BJiXa8ridllD0Jbl4HrVAd6T28XqZ2iv3K+aiAaxtzhlFUsvgMD9b+Bv+rY8VqmUeXwnphic9Jf3JF31aXJ4JgUlShXN6dzMGHQm72XzQ4VqhfnaaBYfTf98YmkKT4stD9uoFN/YcA3jgrVARyj6B3GPjIpn7ibpn4mjny30wfAPEl65Ea57pGtIl6IPiOpRRK7MGyPB+q/UoitPjS0oHKsmYpC8vJOkF8bKmESIH7aWb34Q8PNpuyCBMp5IySQ8TlDnaUGFJZgoz0k4wRymwiqa9pAtApRGplLtldNHVa8V/R2M5ZfFWkWTahaOyOJ0Nao1/T1u+L7mF6s4uFAptwQWOu2+c/8t+urWUSF41ERWNBm0FhBs9sCLPw9cxo8zB015gXlBdW7KoFv97rgmQdlVlBfOyXREJncw0Z48PGgS3raFYudZJnJI4cR1Q+GH1I51LnCM2ZZaEC6QZ44KHhBOnlWosSNcZ/bZ9FZX4HooGm+SnqvzUQuVv50akhzIWLJ+rfDhiIdNFBpD8+idwXUQUGw7cKZauarrewMskvcl7a8Q2F/tC2uF+uruyuEMJBXyFCuv8M7/4TWr3EEZ6dabGv/IjJsAroVf+72DsWRaXDM2cwpxFYX2oj2zEv4BT7ey8t4880Hk2AfQFG4CPGTv2uiFmzyEwhwWVl1ukvYoS3EY0A59kx1EBvIc5icavZ5sLST5GzBte6AAAAAaRQEjLQAk3NmTjt29mKAhqtK81oUXQTPj9u1oYTMVg6SKMiWYbEq1I6VjWViHKlUnJAGZR5VNYhXUUcR3Pnr3EP5sspAvjs8wyyFxgNsL7r8LahGpaqOT0mXK8FWnXkpztiLJgJh23yLurObWekyQ8VS/bSoYtzoDJ5ASypZIy4SbT/9K8J3lFtaNaZDRAog7tWqhV4CBHR4+s3yGy17WfC6t7wzH+T5+e40S8qln0GQAuctmlbCwT5p5eY1ySAFDzCmlzrfNbW1wPH+8uuPcLr8lxRzIQC0qR14+tglzERvqowOm+FuuzIskr2ubFk2+JhkNsrJ6ozG8vADYGRDXpwKgXkGQixB8NBaYLYrWoLVU5DA5iW0G+H3XQcSD9sH6ObeLAmH43iZkTBfo1PKNGyyj4uiRAQHRv7S4vYad7JpvhOzo3hY3+ZwrsBPPcIBaD0EJD6HSW4z++qWe+I0CT40X+MqgPSWerkzS+Uf78mCLj0xf+HsbNMMNqK7AA+fTMQsn3r2ODMBEegb8BlJzVQSfbvSfWagK4qZrnglS0OuKbogFvlKKiuz1r3fMEwRXn1IWj8NiwDEGj4AgWiuu+fA1H2gY5X17wWAYxKFsJc71PsKy1yir8ZH/fApYEuoLj1SvzGSoqm20etutVvmJffe/zloVnhZp2Q964bN7+sToqkUFuQqbCj9flGh/LF6ZkVBAfDJ0p7ICVE2UhrKxnVizKpGGJfYqYk7uu5F8AT/rMev5CNaHzYDKIcbCluJ96N79BgSMG7GTkvBAsSeO+QSRUajLSeS/nLaBh6K2cvxUHHgAAFb2IwoWJlPsqDzWSBlP1Rl2xkUVhYB0VnpURcgAcF4jagkpdib3kclxTn5ZG5hmXTbGRl88iZHNM35SuuyhY9FclyELMbpr/zMJ/jaD1CK/InlkrRthzcv4h0Ud01SxSU0QXfsjTl4TuFN07b/CNj8OgzdmCeLxjmFndkkFrpx6mzQhlYAebWeAPnHfgCC7qiK4xADro6PP5Z2K/qiddNSIpWOinaY+QmjSc0bd0+SbqqXDdCOh/v6htHUqSm2xRZQyrugk51ldPK8NawkkE3+8P3HnY8sLHGSAjAihJyYKoffE0+LXlqvEUcoI8x6dhvKOGqRXh8R2pMHw/KDCyprmSQ61XT4J3t1boJ1tBQUlawp4LxzQ1IGoabORBJnQ3qmbZ0GPHRlkmDtAEX53rT+Dqm5D4cuWBlSU6IgIWjS/EJ8Uynf7e77Wax8RyzcyURGa6nbH6gGCn4lwCVEdf9PsvAQU15m7/3RNNjSWRZ+nz0Zc+DBcQ+oNeUy+xzQbKyxLqDf6WvfYqloOW4MOzkendahnlOZrt10BW0j4LZmKUsY5ZSG1hcyl34MZMX+WQxmC8hGWZqNq3m7hw5ZpmFl7G0JXWQoj/yT8F/QCjEsOLXoTNQ9eD6ZNoeOw5myjfL5Da8noBVtdXKSg5KODtGSCg1X8SZe4EfkIq5gXgvgM+aCAglbdL+VKe4oBzvmY+4VcI5HtdJ2IVofOOBSzxwjPHB7KSmOixWqbCGoJ8eql0MGNEUEe+oB1cnoZLsISSZ+p79eAbqDS+1i5G+qL9vx0W/EMt31B2ODNC61HNevPbNNrjEwDcNnRAt0NiCYQ2b877AZGNdevQZKHDFq7vh0lDsAgWRjqamUwpSaBfcsbI00Aq7NLEvZTQYjepCWLwJPJRqEK+tGSprmgAOn3Plt+KB5NUQfLIHy1S4QdFUSZj+ful7VM043gotE9gnM9oIXNFKmI3M3M1NSyTwIuOvM22TRY9aY/zWEbd84FGJriBsDNHnx8hL/fyB2kn+NOTTZ7fIv1w451Ttq5ipYcLECj1XJ4hE4N0uO2VJ1KrwP+bEvEz7XCZBqjO+tG3UHa39jUG2SpjfGkP/w9loEZFY9BZNSY2P+j0G1kGPEZutGt+2HedgqU97MHfu0nOGIsGcV75f4eua0oqK/L+mxaAgMo/Q3fvfyT+NrZIrjPi3/uaaMMvBRbo0xLYHKE+MiYsiAn6PlO3rvM/I9xIz46n4IQAAAfA89XoAfy97gAV/PqAM05Tugc7iTPxhn2wzBs8O2irINlBgAYT0R/gOQYnOTORpSRdslBDkFX0gDJ+RYe29kwxYCQywntVgS159vAYdFAIzNwvqOvp03wIqO6ZTaU8MVQ6XXuSYobTICDsIYFPEvpFCrKt4n2WA3dgLyiT0eJBBvaRoHqWwf8xYgM5R+yGqOivtGrK2y8z9Yjlt1Z+ULHCCOE/sEgKmpe315exma+JfLmnWbthajt1b+1tC6Nk3bwdZQZyOZ0IuO6k62gUGT795rqjfQOnbMEBZ/JhMQD9kTNM5EG9qzOAA08cOcnAUQr2HlAoNFQe0xYqPAEAE7lb3zO/IaJhet3zFuYGKYYR4r6FwPAn/mAHJCsgBg/9FDxmiVIsNCY/2W42aW2aPkfCnjNy+ezyu8TlWHHT80xve1xiqlw4WPM+qYEBG3AWGb0wKte7wvWUiZGaZ+Xq27LE5o/HJg+kr7R9Tm1dvbIPkGixjQy0SJ+/x534TAiJv54P9b6TXGzFV2TN43lo7gVyt4ljGUaLwWcdqxS8+PeaFmqsKeFpgIsDah2CQNF4fGR98JYKSJbpsAg74d8Eb2lJOb5H2pZHPbq1HAF79/Z2fg/KDCa7ixSt7x+r1IIyoxIRLoEzrmyL1rj9acFKhAsJHVX9DtUkNC5WQDqQq0Sqw4Hq61vYY5kSCYiLmy6TWgA5vS6BXdO/z+eOrvo6nr5TvcB55xYOHzOZ9N/l0R7zCQwqOAqjfkYcO3T63Ids0Ztpi+t4ltsZfUkqk/CoWtaqfAK6LFR/P33ZZ9kDyaMhO6vOMYq8qiYkefZw/lfwoTgOMXzS0cVhu1TY4QKtlmfCd/Ox484cMX2PFwqDt2mK62VkScbpyF+1X717vie279atYPF+fQBGsxvadFfX6FB83NUh8zqdT3qdo8OCjn8Nhx+USHackksF4tMCBdyy/q2mno7kn+9xnEjppUrjIV0V5gof4oBEuDitWrf+M4EWQTxapEWPZSCmzu4B9lxWqRCA1nr2xhVa90UAt8QOHsBwM3OFwTpQlGT2mNmiPFQ6ItavM48AoG0ywXnl9bcYTVbQqyc5d/9/xGda1MlPu3Z74eFBoCmsJl76GS30mf5q9zLzG+j05FoR8Z02tGm87vT81HZ2QYaIeJ0M/RhpDGc8+VcJFU88zCd8ple96tVNDsyMpjTCb4Ve7rB+jxxkMHpBf2LZX78GXcyvorjUiIMw++1e6WDU6Udr9PpYnG5tz3vOgO/zzQA2vkapRhASCyMUwkpqWdM6GnRDYbAUTWuHI5/RtOqnwAhGjxLsHeoMsrbaF1tBxOyfIOPqz2CrDxN+RMWqI1wmGIL2jbrcsHBRurgdoWs4hH/FkJptWEnMMj/Tbkb0STSwcImbw/Cu/PUyOtIwLtYUMaNblGG2mlpvKtWMt4poDIXASOEl/a7BmKudWQT2TTn1XQBrzcqTCg3FmOMmisGzy29y4kJKlJVcIYGEKisnTbDXYSakycKQtRyf42IyFqGGjyxHrzCZq8RG3o2+4Dxfcha2yejPu5Ln0KNbN+eC+q4ARl8LfR66ZbEqA5OSx7lTS8e5Z/Fsai1XClugdhtXcO1uVFW11axHd0SxuVYQpEv5/wQ/UM4xvIwuKkItylqWvbW/1thNC1OG5Md/taF8ndeT4JOkCuVwbYj1Prbn/gWg4Kr3Y4eKLzXTmH/8KEwLUmSGT6rgirvKFHX5G+a+FQyIEbzALbOaZyNuDqBkiuYcs41Q1+TM08WDpIPDLtuJVucozTtu8+DsCuvk2RxyQpJApweHnA2dPcBXeGyqrrj3CXFRDHouVThJQr8NQNZ8JXKor7NGf0aUy/KjXqAWbl+ulDJvC8JL5Axa/4KQRrL+NW9hqgg3it1dqT/GJpXYNDiBDDb1HsxTU86LP3llpROrzpcr1YxsvKhFmnIgGzrfgkzCt3NzpSV5+0ACCuOItI0V28PMFF1sJpQAB5pybGFsCI03d4vcSkPqo9YeU79oAYS4IE1ntMeZOdaLN2E4K19hNSWylszY1mfpIOxUm5XOwhxzWdmuYQFrCZcelvdXWNMIaccQWJ4lmRRwBz/arPlriBS66VIrp1K7GhiIjO4KBwEx1haknPvIJlFLW7hYWg1zieFIAuZXDtVXmgwLZgdmYqTlWSgpRQnEA6RpKAFSc7zAd8cH8qbhEX+VRyLnUcb1PHXy+F/x8AWv651GwQHpkXhqUYKb7Ul2i4NXt8hu8sQN7S/sPKbQkuM2fIEkBtuqY/S7Xo2Jo9UywKKzg1SbBAic+8F00WxufIRwG8Od1mCgMAO5X9rhZ2ejDeT8Y29jz3rip4MPBsNQA9DrNWp2NAnn5P4S0IhBydYAOsl5sDhqsUbBtLHyPrOwTuHMm/dt/nPrAzdlqlxaitAXwA7Mc9iqgyrArIA/smGpNVp9AEb/8rMH0pA87WjTPQd3wHA52kOIZ0SG+hBGpUTYOhVJVKHf1SxxNpOCxWUlxXQEizQdeSTfEZN0OmLR8MuX7D+Z8y3GsMyIT/iZtKP2AeAmatO7+ffWwKgAShkEAxySXJPjdsw36BJOrqVjyzGVwas+nR0BPYx6pOrTy89SPwBSYxcPCeJ+SFmvnpMmbasWSmPDYqNLRNpZt8X1Ttg0ebNTwrvFBKVttyAooUuxhBX2q8PuR4r0pTVUyVXaccmJQmi4MEib9FDCNFiRizf1iMhW1JGAefPFUjpv7wGSdut3HKNk2amgqIxKpOTUDMd9qnQGsprCEuZYqRxj72Hn3GE+SeCa9MK9uT89m2ZbtIEpT1n212YRmUWJJZUk3sS3Utowc7jrSdelc7rUeYqZ30oivX6alU+pFzcOeTNe5Uwaxg+n8roJF3rNdBNRAF/E2nJPzCkwf4m9Eo0EID9Iej6nTORF+sgIac6HrQndfTFj1ORqTYnYHuI6J/cXR0VplzZWGpESdDUfnPsXWTU+QBkEhVj+EFJ3VBNrm8jaR9R4IqNLEIn428eQm972u/2BR6BEl3ov5Qk+AU0v+/14tffzlCrI6GFKc3nz28nV42+MFdY7L88m0bKW7pgJ6fxPbhHVweHh6BxG58uIEUIfjoTN9kFryL4CHz/q/AZM13Kx3wGx+tU+lmuRJG4Sexi3o+SivGAILDygI90jQstTGOfmkgwLSv6a2WPN6SYc1Pc+joUnPRRd7BQxq8YAX6sQLWD4w2+GLpBWtE5FTbiKQXgSwRSH2wV9Ton0AAyUTChEVBEC7EivFGnl5MsslMFmafo0R5HpZOolXJcqp+8V9mSlYP4Pc1zYJy9fdnNU4lssIjQ2lFvZFC8Cm8zQYD22WLDp7FePDrxbW4X0cFwdXCjiSF4chnvU1si+9F7BNc5nvIJj1jSBpcfRmfGrg2fwJR5krhjeBbUIMJ+IYgp/31sBW/E7sSITmcQ+afsS7n8vthWNenqrAmy1vYQOMO6a3o/rhEdzMDa4ZlhzPnaZlghTuAuZU2iEBmyDNwEtv+esz8XDhmsheN55XZdNlRl6zJtUFp6MtGxbjsS2/Fj5uUDhJ0m61v4w8SwkBgR6UF9E5VYcOdx+0NRfr+xF99vQUrzgLUwIbx+sWsukqoQLCvK44Q1118BbDL+Ygs3pPbVJL1Nl6cOzXcJFzI7DGHdnTZxJq5aW9mn8CQMYiFhPLvlFVhabARNKcsKTqZGdBcoeavEsLvXiL4u3JaclJxKzo+Ps5q6qpRF26SjWCTMPLSz9Qa27MQa0BqNXpX/P33Q3IV99PxsvZOnQ5L816UZgYfmlIHdnEIoEcdwh2cm9yDTdiPbR8V4UKQuk5d0XLdsM1XVQnplbpBJjcjZsMRAmaTxkcQIePjm6ueuAMZEIyujioNhRnvOg+Cxzkc01L+lnMY33xAnsYutVtlu8c+LUeteAiM2YLQTRHX/WFqnFUqp8/3E+DtU77T7v+FgHDoRvRmzPNURYyUUF/ZWBBty7GlqBAwvQl6mF+OsQYz1n2G1GcDJQF6RWMqykaSPjOxsX//yQXi94dChc0o5fKfIbv4p4sQqPSKU2+twUSiomwacaWW49Ejs9iq7xHKcjEnHezmh9Qh8AHR1jF+cH5EZBZOwiJ/fi9owuqPAk+96BnnQJIok1YWIMDv4D4nfbcRCpbXi/010l/X5KnltKjSnITo2Ds7C5Vqoi59p8AAkzM+v9QQTzHMGxkjcocjPvgJ25jhqZ7m2RJVLkfuPfaxuu1nm35h+QOVsmgB9FAdoAlcuZ/Hod77aO9CDU/GWudV0Kw1GulTYSJSMVm+Ryr+NPvMIBubnl7rCf7O2GWcVH3R70UiHUBpQSZautUitp2NinKjJF1fb9p2tEasYw/43DN73NihpIYgcRu94N6pqmI66WHTUkTUJOk6hmHDcbm8m+fNMWYcdBbBUT71iwR5NH4hyORyM0+sk9YB3r7bAvwr+k8qoYoa41ULKQIR25Ld+h+0wnvWDQH3Iyym2Yhu8QOsmYGm4p+EMkfjzwo6e8dEMKYHkraFiIcDVXA3K0xTyrMHtPJfXagdVCyf3h8vPaweF1nTNPzCGUuEg98usRXfb4xNGWtPtW/DMr7LOwQzJ1NvNJBYVMSOuXj1PzjJLo6hlLwejm5/lujbXDRN0Yv7dtMVKguFiF8GlnghC/Y+T89ILssm+UeYRUCXDHbNzStSzDq5Hu1Lddl9DWbRN3QL8nMm8tLNI/9AhUXtQyE7EwpkMG8LigQaiOPYX1Dt8Q2hwAgpi8znIlX533mt0R6cbgEdy40MnHYamXiV/kcu5Ov7U8UxgyiyXS8TYmq6VNbo8rWDfWcujOf1Z6L6O/8ncwe2MSph0udAfahPaWCLxhqYbx/0lyAvy9YDgT80JQpfBlBmQLy5wgo7PeQuQWuLd3PHjdZG+piHSP7pl5jvZcIxJ87IXc4SJ5b/WAw26D67RmL4aX1iP75pihhEo4bloMX6FEZdDW7+tC8Iwy2NmwlA923KNQs7DzxLN4IaEszKyIlXaih5FcCcGJ8v+wDM3Ik8/F3g9fluF7a6eavYr3Jue6ciHBobZnyUj/j63HjjV5pfldVWwLECsUgcn+Fx1Qg0SX55wbrZEoAWCPAElk1O2JRpOFU5AEusNCixwNgOMY4ZeAf3/jqlOi5cKd6IOo5unpCW4ERjLfd/eI2XWElPP0/WIoKXCqkPzJqFF4STadXOF84iLgKlvhY5Hjij1fBLKjVfkQxHxiPGDfKhQaAtPeeIQR9LMnaCQlvCv5mNFLd5l4OV+ZgCPzf+P3PLhcfy5ZXWluKS9yZ4gihQ5w4/rnqrRbs89Y4vyg4wjskAjX6EC6PJDRBZqtzekgJkxJe1i/9pMTrQWW5rTXsDdSxgnpdwCnMoTVw2la/ITolquAUaB5iTdBbLNH61v+AuypupFRJUC4OjYs4alFvs+mSwMTEzXslhJFxBZzuW2unVJZHUFU9TbRvas0DaRT3cjRPrY7ONCsrAU0ScEJhdagifu0GZe45YV+qfM2h8vBkTumkxwUiICLA0/1KrhYfY/Mul6me50c8inkSTZVihH/mQVKwzMqPouP8oGLKaeZrKQpGhDHc5K6oNxHywE0V8tLeyqTwEF17JYFskE+iPckbbyZeSvDjHdDXjRo8IIIRVrWK4A5cITTwTIXhxod/17/pQiE2KRKHdhdhfjQ7fXH2QNd/S/fyO0XgCfO1Iw5P1UQLZ6fBj/VAPXI7qQhBA5OPOyL1YDJqux3t8dw1131OlV/kRwweqyCXMBuRtCs/coRpkOgwk/Fy6sYA0/NH7B9WN5AUzWPBneV1Fx+vBAbZtdFN4arRAdVEj1zD5Jq7+kv1jzT0BK1JmWc2ADBNJjIRYtVvPYpp2svuKatT42N4zxoebDs6q7BR29NC/tvaZ5S3NJ7LfBDXHdiS8UlH6j3gBqlVR2OEI9CCZkLXlp7+RIJZpTZCrKRVs7sqWzNomhHyzwI22tuHpcpTv2A4+E/hDnM96ueYdZshc79YKnScC8gaRRKo3Vq6j71coeCjc87I9T0J4D9DU8ZIz1eYQqHggKzFJcD5TX3CV2OA6PY3C9BqSRrioX8sIB5K81qlu6IZYwRAelKoTGevWHKGOObj9esEKMzEvKv4185hXICIcXKxdu0++p7+FGpI+albYAZFMewvBY882xS+jZ4Qbs6J18i0exWR/nk1Ly3cOa7JDqpYWKXf2WomYf0iWmtrO/Q4HnO6VKTT6OCih/V296pVGhFTrTesnhpjWMnakYMegqG3KuimphqrSJnBYCtZCPhJGbp6/XKpSLTa/7Ev2BHYyLGlv/OHaADnuJbX9VEcDUCcE7bBch2K7fgrfM486CE0eWRec5RHxm0UFWU9DIfhtt9gXs2FNd/uK4Wg9lHDbGc25aGy1H2q77rFLHaLllH4tXIV87xcHn/AvI7e91l0S7+1g6rH0cAJZ3Y+RNcsnDByqNr6fBG3s6mJO94tT4dQghgmJ61+v2rHIHi8te1bDZu+6TXPSzPujaCRvW7GsfPF7C+MJY0oT2W+hE06CDn+RGCjAPkIJue/+oiyWyrf423ovejakatw7ALDG2XfhGLQv2udh8VyDGbBy15aFJ23jN9wMd2AbCJlMEc0DVj6ZreMuQI/urR3hWKTIvE44nfD7v4JzpyxmlNNAk7hU4Ni8nuDjS1ZCdYyWgDh9aadnNO3Ui8dQAAAD/Sgzkzgtbs/iYluZPrgU/BnmbLNHiHp19y569uTfn1ut91rTddvE6WjsfOsKawHFNugOKdg5wBXnDFAM6XbBIUJL9CsyssVlpwxj85eWESLKkrOPjELU4cuPEwHWig3+vaB8KY7kDl7r4pGgPk7wtC160vFQ7T/x6ySafktVj1blS/GRn2fEGdHtuMeDu7LTvp+qWh7aur/p4T+Gw4jbCdsWgXmsXDxgCBunmDme/GQ60HMfwtKtNBcUtNMFa95a2QmYyHvnX6F1Z3Pg/QCVPZtCpjHHZZ7+wW2FRPTAkqmjTMBs4elWnF0s57XcYhBN7sgmDKIaQj8+Vj/jaEteCxRhioVBX9sb8qDWiSQpul86Hd1R1ujbTR0t0GZ6+bfy+YoLz2JGJpD8cxEXfZFh33HBfAD7MivFYWpxvnWohYqPvsbZ2WgAMGKb5S2oXLNs7XJrj4JbQ/fTQThgytfCtfsIng1tChKRmd8FFtGit5fx21oJ+jUIuk9k8csMesDQQLnRA/3i2BgG3gc3z0X7Llm3ZlKgwAe4LiMv52SQ4R8kz+5ATmyKqAELdhnrKM11onbjAgHnJOgk2B2tGZkN3ngejGktznfAx1kO7sH8NCw8otBy+L7yZP07PyLsjYkH2hITZOKAF8JOd06swezSytalvdEjSjvfiLtZgZGH3cdV16ziRMMBLcf/jmZ4mYD1//8pNerb+Zy9MipSIXpw9Nikd1PQu44EkjrvhNsMGPD7bsYzO3WW9g2uS6FQc/PzLst6TMCIpp+fi/mJA0tML1B/jXfagp0e1j+G6L2mHRkStA8qyMbOaO1n8UWCB6WrQ+bVbfAutxDXKaGmwE4nNIgFxkLcqxDYjq0hOijXBzO98sftqVas1eOS4CMNKhqD8WYPtFx0YDYLYX6/lWylmIgW0z0JGYOGKiZV9NXvJl18PkJKVWxnaQJPetTtr8c5UCGj8AgBf9w6tw1Xgac5NYKort9t/EGvargq2f1L9ZGzpV5myHYQuVTxVYxO7q26+iQ8hQ47xkPYSQxJbVgjKi9vMzP5PiEbjhSW9DaySiqReRvSUcaxv5jGSpRMP0ovTjLN0uwB8EUA2TdkIGmq+xxKdGIzuaG5D/K7QBNnuLKju7F/pJaOg4a+jgBXX0hGnUVbv70wjpmcGgeBhL6oRc1CewJpQ4KgHo8tFCDOG8v4RFP07UtqnQOcdAcmlzO5wxhc90yNwZjH8CxCOTM5yQDfhC76hHTUJ55M6q+XGeIZMLDi2F48jC6tIU9lGfWNZfaLGpVjEP9HCHxjuHyAOwu1iJP/y05MBQM8nBHViH+ps5zQYDEMidNsG78oWYHUBztatyG5bchTuLf+X3kWQcWB787dxlfUTUZ1oF5rFqBfd3BpumkL/iH2YjfiShXU3jv5CUUjSiKt3zV8M3UAcxJ6uQ86rFnFtim4xaAHhmM6e++s1D4yIK5YXvMIrINEMm0I9TgdniBGn1ELWxj8nHmij32TpEmlwq2Lx+ShNadbHtiVnPO6Eo/Y25Ck8BOagP3Ak1WIp3iNhQUJH5maMRMYgSq4fwpp6qVimKDQ5IMQZ/iRQNyTMvxKWw94NYMXE5ldIBoodkq8M/zrCjrJwHksUgyXEjnbRrOhwxOgAxT+qDBoitCJitsJ+AC1c8wSoDqzR/K4Hf+K84AyOY4xs1v4Z31E1+WOR83oAGX0Ec2TS4iibk1FavEgwWpwuL+YGC5n4ltPB9ZS7AI79/U2QSq5bZbwt7M7+Uokt6rkiFMbVKr/GfAUwZrjtqSQXHvTN9feQuP12CUwlATmTaqOl8uK1OTsk+i5MG5FZnKeCZLg5ONFIU46jjrM7deEoXN48AwXt+PdR+XPWlicrg1Dd5Wjm43KDfKsdjySIbPQFveweXTi8FSYqoNyAp4/a/ekJYBrxUlH7rfUtIG6ADMx3dRC+tyuFP337apYgfk9G1Huco4YD9zgfFsCAi/2iDxUw9Nf3SySrZCKFo4EJaPuWYaSxG1bcS4J1fJAsyK6zHVe8E0uzeFsjinr9C2B2ouJ6gtomYX2B2/w8VbmkhStSmtyfozljBauOVcTknVhmPqtVdRXRfH8Y72lwj4URXBvqfbTmguIEj0Gpn/ShmA/4X9bA2Dn5S0XcmwVa8j3czwod6csK9QRULfNn2cv9eXJfKG1I+G/JGFZukzR+epS1VEZPyzgt0zu701sTo4FRJkL9V04QAFPKqR1fvytU3B+WcyrPGGX95TPhyJEwQCNW+m+ZpFMWrq0PGqvX7rgrckvaBMdlPTXt6M8jJfaQk1BQrJdtSo2vpV/o5dNa/GO6xFyJYITXwKiQ6aiaEFjWAHWSweXcmvgKYSygDw4o1sYBTlanpgFPALdW7Bvk92tldUVPMajv4Mny8w/5yUynnTLrzFmZpw8oDekfTYVQNX5xscrOxQfYu9czGF1xUPKUxFscyVJ6JWRsbbOUaaZ9MExdn7FH/zCzM1DnYhvMe8RqgtbhuZFiA+roXszmn2z2Uj6bPEK0K+x+3fbZLwotRr3AD/d/eguz4lhDTqzYjvn7UZ52UWajVGutl8no1r9btO4ORHXtk7i47eqb1sIIxy9muYyErT8Ca2TBNY25lmwq1JH9h14rqJl8mgEHddTRzPsh7d3MRo1JWRqoYvVA4lbLqWyIWJPOv1ohiRbTf9W1MBuIMUuPgbMSLGkVo+vYVjv7C3/NIwXMz2wKgRxVFtuwVPYguYtoKNCaM5G9H7rob0VTsuqPmmIwck6+kHUTCz0s+ZKFcntOCv82eeYbpXlC3v3L25zZbof/li5zcMCEYwDZWZMT9iV1gyfZMVqSuffNk+/N6rYiSdABAMCKcieHTN5pXNRcLmjpicS2Y7gj/D6XL+Bhpl6pnLIua23l5lWHzU7X1PXEa/AYQAEtwEU4AWfC2MnAjEMvdM/OqIb0JSvTmxgbCL+00t2KjIr24prNM+mHkkAJ90/0KYY/Ah+BUUdfa4GbwFQmgZwsMhWEJX1x+/CAfrTsrtyJ0oN9Nwy3W4QUTvvv78OdJfU1H3w0GWX5LBqm5SXMxbSa34xbTJ0KNlLsWa+FAazOLPxSvdTE3KpZN88uLdHnnvKJkN+T5DTVrhrDww/f009sUAXtF5Y9mwxq6BB4xLTFFjJHyfIjpj7RMRmSuP797bH1mbTrqBJDwQ8Ycl47bCHm6Ji9o9Ibqlm47KyGoD1wFrqr0fQ6NpBc6eAQSdtkMFuWv8X1BizDcm5PYrE79FrUjFgP5RunZNrpUGuNgzs/vjYvhvd+dEAVDwpwitnLgbZcAhV94MZX/9/8KPp0X6CFKGZyx/UlMOOv0DRqPdU/E1P1TYswsc6gp7SVjbcebxJR7m/bE4JbqRD+XeqWXBRF1QBTUEnBaVsHEnvmL5mcpC03gLc+8nyXMyjzHt4uPmH672i8cqXQ3h7vP1hQSL1vYMie6qN+K+UzAkgk5nfCbSPz5z0Ub2ikQZnEsOpEUi7WBkKKAWYNUmeYaFEhBFXgGzVpsmGuE17nCrpivjGpYmSVMFlIEcaLNlj2HB08H3PY3Fp2vnTA3u8BrC3eHb+02Aif6rCtuzR14qoPSvq/kb2Aq9LDef0gTKvbIcBuELCL9I93dQjtXvuwij8B4onVkhc6lqMLUDC+E5WBBpNJ1raqc55qrf8x0RGwMiPYT2mBRqO9r+kC0fqjTJ1SuEoUXFG63/m5R+rCDfz3ygT2uFdsv4Y5ipWxZCdPMkbOkX4+dVBpLtE5duJ0AXcJRYRGWX3E2AVdqLT6JKL7mpDN8aKEF0RxCaS6d6etjuLZjOnb3Xv4smQBKwEdF7/7p4GeAArgDL4vdpCIgBWDS8zs7/ClwzVHOtvfRqHh2uq1B2g1vH/T9UL30P7yZ9lS0iLUTt2IbhXkaWCVQth6wWFFG+Yexe0+/SHkE1SS2d2AhRuPYtPYc1IbxlN0lCPEBbERYpLZDjDnsQSQlEDYPb7pKYiNA0xK5yDerXBul1DgxvKCd3bCTuZWhEr6XeKa2WjLGXem9TarBnHrXQKJLyDRLKkUHPFsPIN3+xf2jem/oOOIJcxmHWFzEUVnZW+VVYF57Xg1OnpM/8K2Xht1XVWz53KaWaL3qW41SytMphb2V3aBJ9/jnAftm/gJHlIUa0wYDy8nGxaIiqdNF/u6HRnyaOPzfh/YDWlynkyY10VVtfmyd++8f0/S306OAEQbGbTePrMe1kuK/rkEMg2PCCXM7SDAu+OMIs9gUpaOThphTgwRmAXYlkHspwKTpfRKar9qlCiPyN1tnIEt6TUOOSX/N0EhCYxfF0abEQrJ6kmKkjrRNgeppwHqA42g2Mvu+/tbaf/2KIHzSIOGFgwCvZGnR8pel+3oxmAlzwInXcuzaNDbvQ5d0ExZ8lOD0QJqQK2M77CRrDWm0+FTZ03z4aFZ2GkfuNprNpttaDiSGguJjXKovRmIBM/fTuNCdanb61TdWMt2QKbZakEiSfnXgMLi2KTJ97lKec/ON9uEPUCGR8FbMbqDicDi/dDMfzU0l+5hjlPpzvIV+/1ZPrFGFCQcJeALJyLPUx/jcnWxbL+KRWuKMVy2XcVy6R8L7JgDzorw9/3BGX6d+U7sSTlWsjLJhf/w72cRp9yCkuKan4LVjRAxI567Roc3Ie6d3344TupYbW6KZq9BDOEoTrnuuuNC/uODkx2xExJQX30Q/qKlA1qODzrdpL4ur5ZwT0mBQIJZWvuUoACnRxSfQ7sGBzJfkicXwdhBLS8LL4rPTFC/r/AjhTtCzpukMn7EdBhyCciPQ9z6ylh8QlhNZvKhuWQAnB7AC08dmp/h26naz7ZEgigU8oM7vzvKwnzdij2hmc0bm0gMJAvJcqCGr4/e8GT/HskpGjpFrvk2yZyS5ptkXrurfu20GqcX/bcD83oqEuhfGHKy7AwPbVcBLIFDDXMCtFEF7Pu9U0XBMgWD/+wLf1eNgrvzuldJSjlPpMba6KA8/h3P8yaOCyPZPso3iQiFgJ4Or1DlSZ5pW1PdWuQ+C+Y/7QceDJ3bdKxSCwc+QKUqCNWyhkryzxq18Hy7fuYBhO9hAjjMFxjw+8bA/t5LfK07c5ZO5ARAlFZJDykS+1bIOKnansQI4FvHrBCG8BXQXZly0gC3curBSGAV8tWWZ4rKNsfHKlNrNkncx1fQAJK6CzYjiG4N9zj5LtearR9kGKG9UKcJDgM5NLOVtQN0c0zwFOwjxHAj0lFQiZh8JdBubSHEueMDnKbbxOBDQdzybWYISNxY6xDRrHvVVsb61p8CG4TtO4pu0dh8eqxD6bzresExmP2bdQXFCVXfhn53KHrq915ct/hz+u3Y3Q39ZNYMS/trF2Rv6RX7YhoUsmplHGFR/tbhoSXU9GveE2DahCVJgWuFMncXFSSU4jPTz3+5n6vDrEJECPFWafR3a3GD1/c8Tb5yBbBnnumLJ1OEa4z+x//2UpQQzkD+R9PHdKhcf8G20ziwFWM0cqGTRDPdaY/OPRTa9NhYZn0xVr31KIzb3UduTOaC+cDoejqiLIvKy/r24AjgoZ7SaBLsnosaStmLp3d6PDVe3WwOhS5exfEgaX9m21K7QzN2kpXUyfGcPeeHvawZdNuFDBW9Naz84QqLbtnQvCeVZ4EloBYMD9iWeC9p3bBRqmxSjwy0w5YxWdV+buvam1QGWicncs3OCeyjMADTqjQ8Dbap+W/KSW0q+GQvqPwhPhNAyYoYZyjMzme1oGKF6GCtUX7qXaLbYGbjblZ3N7EA19vYBNyg0Uv6aSai1gR2stfepVWk+yafRX2F1prd6RcsgkX5EkNMr1UV/L1ExB5KbzocCM2Hzia0A15bS/jwjn3onCnGxpESEhvfKcfiRVm4wHzBF5oBLjnrQNxqvd3iVVRlhUEUuXEpKY2aJC2TntkQpuf0J1tStM9hv/QsNnV4FYxU2+qBf6VNydsGOz0/yGgKpore2QYsXsgF4+2O0dSPdIorAEDt97sCPFo9rrrJ/pIZaAAAX0ILqd4VoA28x40VzET6MPiNDWabfI60kM1v7+gmCKLNcc/8wXF7p9ac4WieNDboEqxYZ8xpJvKWyd26YL7nmKSKO/iSkxVhgbnEdornvh0H4Wh6tKevRCgV1KfAIg44gkrhKtYUmeDFxpcqk4y56TO9srgYjXKQZQagZ37+9uLVXGNOv8Qwp7mrFlpOUl9zUzUcVs+6BHANwt6/J4hBAjc3ad8lJDAjIXKek1HZas7omYLjJvnPh0BPUXNc/RPlWWilgayv4eOGJ2UmWpI1J7X0I2lWQ9w8yulXe0Ztv+4hIzMSXK0aekCUUDcpvbfnVRUpVj1ieYQI6iUauN9MxcLHZwdGGk6PGr2soI3uF2HSgagZFazpg91ngqCYgRJ7qWd7RXA52KePiw9ccOYT/OESP/sI7QkU5tMZ5+AvJy0MBamUW/tDVvD89HcltdydxOdQOFaTJdpQW0kLMa6PjgSY+NjiMNNNCFE3XQSouOP62h7agTkTMoORKlH6sqvBbnTk9/EtKaLb0n1hfAa6s/5tR96dQVN4URuFNVWhF2k/37povl+vL7ED3kyyMmRHO0Jr4Ic21nEgtlnRKD1u8CPzxcYwN7rKvp7PKaslBSiThFaw7dlr64p8LXh0ZCRS5Lb5Kmln+kro/ks4gubUVoziAut2dbceUUGBOaxw8lLAwOaxz4SjuEqlwQ4B+qvXWz8NvoO1NY/LDva5ALwSH4dVut9P7QypgOnyoZw1VQlAHua9nBeX5pfV0c8b883SoI0sMUGKAx39Vf2QBOUi6gFUoFUohqfrNg9LePNfVUULVjLPaqxV20ADmsl/gRhPGvaCHYWKtnwGE3rd1bddVSLRyP2IX4i7e2/YC9ehzSQNnyt6Zew3cX1PydUaHgbMqLqVSOAczovWz5MkyWsi3ilnjDTLbqcSZRm/tZh/9cDIw+hJArmoA8CrERIZD3Llh4NxPgzHNbCXdgoVl5Xulrj+Pznh1QngQ5wOSkIvrQ/C7A6Q6CRNRi16hRXrY6oxoJiej6AIAONdJitBM48nh2FFzBLTwX7i/sMXcI48KZyEIVBHGJRK5RXqGzrVBwUFJODRE13epqpW3z6iVniIjsCIVCQF4/Zs8Y0mYn5cl2o8ovnJ+GDKDhf6r3iqppMyzOs4kJUgXFFiU44TXigj7l3Exg0sHAAiS9HBzRYw4otKNEBPGioiFbFCpqMTUlSMAAAGfE2hLrDhRL4k/NbFrk/jvjg9vfyomrDLn9jaVkk4CWAMq4Pi30hrBmoQAtX4PNAzfVFSYN87i1PxNQ4lkE3xJEQ3cuSLbT6g708hCQtxUQro7k4hG321Zf8Kh2g6pqfWeYsawVHsJhITbj7fXjYWpD6G0DaJMjM6HVYZJvoasKHhjmox7xm3OiWrfuMjUd0u5JzMVRfR12MCXstesHWuKDdr77U9VbVZsHb4v38w9BvGEpNNJiSf56VqlTw2CnnseudQVdNArjr6lB9fM/+8xb4nEnWPkZYje7JByXQAIAtQ1Hax42HuaQMARevf2Zfk8iwdTxoUhffzt/ruv5psI8WiN33amBKODNlr5BPNB181egSidJZD/w9xtJeCIvr7KCMyDYilfp1elQIOo1gynxfyUDMNZrBWtuXR2AceGwADip1fBO4FHhKxE4ekTUYKnLMOinlC3cx1r2NGmP+13IDFogEjGPL7EG6LgZ8ETScTF5mHruBdbsLHilicFDd5IsAKESG/cULgmV1Hr5kz+ijhkIwCDHGSRn2Oq9SQssZfcfuyLjCOFvZz+NKsFhkkCNVtzSzfN5uPbZlbwBdOZhOM9et17Ib+XLgV++InFFL/AyzW5lUFgaEkOJ88I37KgWx2IGy5lM8I7evfwiZ6u3FpWjel8ClE2VPNdAsvQOICdtvY34UJ/MkBVahyCXQHGyQFTHsHpflDD2KdD2oWHtXK85EbnvYul2TI1W5KOScUxT+TG3mEuqq+6puPIs6jZNT3dbTSxvZNdQmgQUNqJnLzoMZ9XENoJeQaS8X7wyPR3y+SUkI9zCXKc3Pk1GATZvZ+XhLiZKxx4ePrwdVnGzcDJQwXxlA0N9SDVw6w9/fOvrUF1sJgQx15nim9QrqpdXUiAUM1ZMDCczFVPB74qpvTbfUAAAAAAAfHcGQ4XZP1ctYjZk19v4On/tQc4U5Jn5RZR1xwDw5MXeu2FaPDaidRdJ31hXo8C4VpEBQFAH1PakN7JjaiKCe0FSH6X8ENM6y6pg1FRz5E/Jpr+fV0hi7bgsq78eEHMKrvua3qiFn6OEhocKpD1/frcsMpSjPuN73lLkGPWZdEYwyQO5xYQID8OYxJz+K8AdP9i1pZr0tnxVoLuAAAAAAAA==;" vertex="1" parent="1">
          <mxGeometry x="132.5" y="2645" width="598" height="278" as="geometry" />
        </mxCell>
        <mxCell id="V9ja9C6b1R4F-isLnQs--110" value="" style="shape=image;verticalLabelPosition=bottom;labelBackgroundColor=default;verticalAlign=top;aspect=fixed;imageAspect=0;image=data:image/webp,UklGRoqJAABXRUJQVlA4IH6JAADQTQKdASo4BFsCPm00lkikIqIhJFNJ6IANiWVu/HRZbQ7LJafH5X/Ad0HGvgH87/d/3N/vPu28g9l/rL7/+tf7z7xedfsryWfOP1L/i/3z/I/+f/H//////bL/Ef9X+/fuH8k/0T/z/za+gP9TP9h/gf8p+wvxqfsz7nv77/5vy3+BP85/vX/f/3P7//9v6df9D/1P9l7rv7d/t//L/xP9d8hP9I/wH/d/P/vPP3s9g7+ef7T///vt8OX/c/b74Y/6d/xP24/3nyO/0f/Bf+38////4f3Sv+Ff1b+w/139jv7D8jvBz7n/d/2T/wfp7+O/Q/4n+//t1/cvcDzF+r/2HmV/K/t5+f/wH+a/8H9+9wf9p/ifyG9JfjJ/e/5T95P8l8hH5P/Nv8T/bv3m/vvq5/aLvddz/3f+/9Qj2G+v/9n/F/vj7dPy//J/0X7y+7/2E/8v+Q+AP+hf2L/s/4L3O/6HiL/nf+l7A39S/0H/n/2fuz/4//p/335y++n9M/2n/s/2PwI/z3++/9z/HDB8d62bb4vbBO407hWWS74Wc35fuH5uXZcvoT279jE2djLfKToCfRVvyjLgui3DnDgOfziyFlRM956RuRc/2T6rY6dCnyMwIOIFmO/DiKYpW+fVQFl4u0Xmc/l7jk3H3qluOmBUtBdYxE0HRtiJ2qKEpttDo08D1BSEnY6dCn1yg5VVVVVVVVVVVUchrXPHkB2qd/QI03NFyaiNqgErmx+9dBtk4QXbrItGVOPTGuWnMW50eCvqhpCDDkFba06ANTSE9dBtk7HToU+uUHKqqqqqqo8Nssy2wUoslRFWwjoOUXcWFrUHKqqo7E6KC3cie4Q/uPDME14xeZBOBQabIU2bscxmjp0KfXKDlVVUZAMSUncE0fx4vvroNsnY6NagNDqqLaGDnSI+vWdKFuFh2KnYAD+S556CPjPVIU+uUFVmT4FE6Vh9Z4CxR7g7iaGv4z0vCh7o2XWK9hQX4nZtd2zbBJ66DbJ2OkHPUYHcD6ftxgBqH3S73rUklVVVVVVSBzS/kIVEUJEyoSBB1UGaxcENTdhE5NHzQyRE/EEpqvGQDK53tu8Kn95uMP5KY3Wbg4pBtAFqEuCex7RgqMaEIxioDArVeA9Wjmpg90XQp9cnPYRSu1q7vk7u5NkLmxYBqM17KKy5Oqhedklw8cjX1f5UiJ2sp9coOVVVVVR3qWtdCXSIOiFIKVxOIrbup30GtHbobW2CT1qEEg2+zzLlp3N//lf5tslb4kDhTlVR+5KPKAdDbJ2OnAQktxkz1Eoj30OYBS2gROdnASJfPTedmOjV7nSFSnQp9coOVVVVDejfibiXGz5DhcoOVVUeTPu85AQgJkTLn/r7mQuAE/JWOmfK6JKF1Bggff8AHm5bMx+qKEgxjobqwWg7G0tQE0Ty5Qcqqo7ErL7Qp8pHkvdm14Mc/Yg+Vzzhsc/Fhd7nQaptKajy6WTkhtk7HToU+uUFVml1RpMACo7lLv/QrORIDLOKDRGXXaTsdOhT42wTZf1KOurttqSF+s35J9x2QsrWP7WlXrAj6KSKLPWl9zdlPWBQBiDfLnyB9VpGlsJTwYRmhD2iFq2lnB3y5V6oAgqoG2TsdN/DyWsndoep9CZHAudkRQgLvCmw+etF2nToU+uUHKqqo5rJHWr6/rJPXQbWsoiQW3Rlsb28anNbPpzwLB2r42qPz+DjnA822mpQ8ht0nJIJ+1+VVUY8XlkaFuSpmE68G97c4k9dBtk7HToU+P20/jDHChtbYJPWn4PtyY6ImFcbojIeyRt9VR4PEGrgpQ2tV5tfDZQFI8XdqZEhNpnQbZDJuVCWdLMR6X4BChIzNlQ4MEmCgUJe7nUlQRFGNde306B3tLLM9F2iu5nc3ICHFFSiHcp2NwB6iJnmKOq6PRXnTt2SlbK+0Qua2Vj2Z7giSwo17d8xb05Pj+q+ugs1RBFsbYU4ewmZQbFeUNxUPG5mc2RhdvQkZJjj6Vod5vURR086dCm8JBgDTn+/IeTYZK9LmfaaQN2Gs4sfUBuRAEE0Kbk7ZQ1cXQwBB44Ty5moXztKIgxdUS5n1QfA9Q20l5vF2hhYZWPVQRo9iPolpBvyT2EBoloWx9LHToVKoTBBgvlQDuaat7bjpM0+eHVsSWfXfJFrxGxEAtBLM1+sNtfvER18cpZwUPF2s0NRetgFK6jXgpYmYzGuJzrPzaE2YemC08HlEUen/XQxAtpqCU5eHd/PSVevTYMKa/RYlVR6k/swWIkTNaEtfINsnY6dCn1yg5YnPVOYTGWMgsdEM+7bft6Da3aykrtNHpeJHt06UFEmhv1mPn2rvzz2cMwEc2uFPhwlOuZowdNumEfo1gdWMvatTgPUGqN1Y4Ju/4KYXmqNCOZUZ7r3ApauBGgrtAmIcQBE4ZMNsnY6dCn1yg5VWJusDhKbHiExqaUhP5nkyoNV9Scr5Q4aJ1yWwSebOwiHKKprcJ2c4T+xi5Ixn6AiuNRbcQQF63BlWpeHyA+v4kV+jzcusadagWe6YwBF+q0waOmUo0lCRcrEOeQ5mwYGFdL1TSDfTN4AYxLS9MwobW2CT10G2TsfOPKakBLJ65w1/LB2J0rriHnvxuUXrbWiJZr1XaS884Q8XuJ24dSzsKF6iwjWZzPoa6WJWd1YuhRWjZT65Oh86TUvG3yeIMSv1f+LFs6x+6RzfK+HbtTzdEjTz/MZzMXdeVPuonQp9coOVVVVVVV6vo+tm6i3KvMdcrXD3vnJ1E1BqakZFY719B4v4lUx1V2E1UtmiaXVb4LjBIfpD2ERZB2TQi9voQNTdiSSJyjvLJDwM7cs3sTqT72V2LCV9LgQ1mCsuhrnRGdDuHXVm+cqdBi3xf2Gr7TWjdOunfgVo3n8zpTpMPPXw3+n9KO/9OWSpXx7LkPnqPk10XiKn1B+P0YSC1J1tHDXFOztMbOqUz4gbWFfzsdOJMI9Ya750LpjmTy2vOnRUnu8EpxDByC2pSyehc9eWHbfdUtpw6bfcn+RYkOi8DaBjnip9fbahM/KzQDLwXfDlkqreh4Kva+NkS8FvUVMILS/gxgQUhThgB0vZqB+0BsRpNQFbt+8kvnsgXL0qm5KSYjbBJ5fNwf56/tdkxhaILatCi2JDP9yTlMyr30KmVe1shqlT1qIQVxudJemUlIgWy/ramEBKBqk5xQv3whZLhZC6yoR+FtKh//SNFzj9se72zow2qML3pGYgdlmDfVZ1eT8OdEXNECQmEnIGQCQefB0VPwAz8ba8LFMIKfe3nAmClsnd1059LNFj3/IU+uMMsTyoUIS17kKFw/bbbECV3YZbLS44+wMB6fHH9oFYOkimNet6B4+KE4B9Aubwa6MTdBPSIowO+kWJ4qoQN3QSmYXcOGIFjCsp87ZzDgyDjB5nLtYY7mDk58OITnyVX5fQpu4WDIpNHVoaiLvslVQoIyoJyVQ25iVBbYG4zabIXX0UIBEFlhm8u6zMrTeuIOzlYrZQcOdarw7qdOhT6w/cx3Q9lbB0HPSIhhgoRf4AjYJ90NAKd9n+RJ5+sbdM1mxdPykNYlzb/3zNHtKcLT2mZ/rzkyWidhA7s0F0rMczSBe+G7oW2CPUAQ91eLIw1Da01+Dy7vX3HYTAGQ14n9xEW1WNwiG+UjajOrSii4ApMhz4cJmFryrSFi+JMD02kKCqMrt2Su8Cmczv0LM6cwhQUOf2v9NhXX6waj2MZNiom+ZUxhjvDC7jIqYunPTfbsbUBITjr4Y/BLvyKentNE1GPMdzNbBJ714k8lTlts9xUcCzDw2n9LZyqwRf/Cy3bxOv2q1iNlkrMX6JZ7uOazYaRu6wbfIRTf+JBUaYOYf8GJgImMXAjxP6PiA1ds8C6appZRd7Prnqp0sSuzTsjnv6byARQxwxH19MCjrBKL+qckXAtgdDpXV2n9qPJPDfkPlqXUXw/n2HbV/a6XZznMehZZ6xs2Ss2Ro1FbSKJ3+UeXjSuexnLO3EHOaE9+X4FIrk6+da+jJiA8fAtntWxv6PjyFeI7KpRHdKii0Yu76ztpsG04HcB0sdJbVGXP4jiHwvMQ+2/83d1GQqBwLDwy8pHJk+m/tR4mloSA7pTQx809pAWVzG7fnhTTHhGuu8xyYJ8xpGy6yFQ5nZgoYDbJ2NltfI1L2dwGZCk26PJgLJFZ0ln5BQpzrX0vWm0asHIyK4QWYoPuqo8CRDucAdUkaBTaHhDfjA9sJw2qHie/0Og6x+MtbkA6OjqE+cu8AZL0ilb4y2SBj20X0xzwB6DgMvwp9Y9YLqLhMNICX0UlUrh5RC8ME+hYdEpagvWPn+R58ZRzdZacJ99/0Zw68HAcev6cxNWNunIFITfr6kXQKeEmD3tdbXb/h6u+7XCYnws6DXkw4TppgMR3yjtJyA4/mxkIfEAckzYeheKzhg6LEIJdCn1yg5VVVVVVVGvdjEt24NQWNqOkkNNzkBwk8L1BvFgR/HMd68mqM7kj6cwoEGVmyumkHVI3OP+YkLz0cajlxylxaHUAFvldH00dzaG66zP81RTOHld1JgG91pqqVl/G5icFuqSarrkrVqj/XPN/SXbhMJQ59xMkrlnPmPj6nnWlSd4OAyFt6DbJ2OnQp9coOUZAVeWxBzj7ovd0GfihTkHH3YvrVSDhsFEPPbajWwmAHOkIpR/sUpVtYP5F3lImnppDEzM3CISCRtaraHRISekEC256zIOhrWByaX+d8muvrp6YhB01twjB+zVvH9lmGVNMY8YDcwUQUDAuQ1SgIlmWsfZT65QcqqqqqqK42d0Fa83vt5xG0tcQ9x3OGrGQmi1LBr5R4K187HTgbuYYgQMG7OnQptTsKIaTog+DF21q0Shi66aL6XIJkyvTv6aEkfwerz66iYXyrNLrScCaf2v7gGfPC9rInqjIiv5cTrCzNE03wZjfTVQQc2Uz1J/jZT65Qcqqqqo9Fp4lhlntlJTElDf3euJ3zKrGYRa4N4NNqmHlyd+QbZOLKaRP3Yu7PCfKY2/prMvK4SC+3u2faDjNaYmZy8EpiX9mMypxwcYKcRG2j1Hmt+YkbVIg7DCr9uHLT6lyvxud5bxAWIK8LWpWesNdBtk7HToU+uUHKqqqqocND6xNChtbYJbGu3BMnXtjs87ECoZiPATwOqZwVn4Rw1VG8sndOg5VVVVVVVVVVVVVVVVQuW2NmdQbZGEUQuK59hV+CpZWSItrDLi72GZ6Z1ElKRJ7WRQZo0en/DAssOMDF1xUAdGi1GatxBXiYuESabPP1pHEIB0cglr2adQRMgCEdyj9zEnDmqdwCLCuIRhjt0WA+iXNdInwa/Kqqqqqqqqqqqqqqqqqh/2EgV9Z62wRG9Aj9+lZ/PMVtws63Wn1XkfSihwuHGssyIlnTp9I/WRpJ7xzCx2/+1VFJLNe10Gsw8nvDsvKoFIXfnURPqEqxM8YjggufVilLyhdBZrViNJLzo/IeNx57toPKqXbvAn1CWzy+MgWKCBV+ps02x1WLrhq0oyGBlI1wgqHyS+Om2jABjWz22s4EH/IWXnZbj+5cGcBaJM5Ar29Ot6bw80lTZpIQoyg5RWbZokChE+U1zFWOxIFLZAWEaLGH2bh9tje9nFLUQx4AkrFxmYboLYOJFSRsHxNtBEsBZC0wMw9EW4B1mF4sEKZjKT5U4JF4oHxkabQD2oHFcQCeSch6NFWARPlNcwZDcDfd+TCg5VIRH3nAGSFfqYcrWfhVvmoydEk7sd57CUPI1Kza2tsEnrosUxjGMYxjGMW6SnOc5znLK18t+//51yg4boXUMEKhDsIQliIdbjDpKVydQnCslS1rUYwgcl0MNBku7GzzbaCNlo2EW5gtZ2OnQp9c10g2ydjp0KfXKDlVVVVVVVVVVVVVVFrtOCp4hrZ7ZY5Hhg/tT+oeGoGUfN42K9gNy7NyoMtXi0a/f5s8LU8ff/kKfXKDonQnY6dCn1yg5VVVVVVVVVVVVVVVVRfn7eYeAgavZ5QyG87s/ETQ5k5po0K37AdbgcqqqqqrE6E7HToU+uUHKqqqqqqqqqqqqqqqqNbirX+qOwER4x08LmVGrPiVcKmSm3Zr6PzIHcM1LkisT65QcqqsToTsdOhT65QcqqqqqqqqqqqqqqqqpAhpFJ0K2wSeugivwp2OnQp9gFINsnY6dCn1yg5VVVVVVVVVVVVVVR7zatWMDbSJNh9oBRBMvHOhcRHiddyj0WWqM3y/qV0M0TuFVHx0527mExGS3O5mCGRr9Md8DhoXKDlVVWJ0J2OnQp9coOVVVVVVVVVVVVVVVVUIAAD+0i61JJTKDfz9yyRxsceJcXJ0FaosboTl0KeiMcrBTUWCEtQQj8snjysOHDZzwKMd9X4G0q3KmWIlB6fRXxZQK52uouuC3FFbxenhtOLWTp6NjGO5yfhfLc9YUX0wY0cN54/uj/Ad2bWMqC86AdFeaeX+MTC0G+gcK9LQ1TCaCIHvUKsddYmXfHf+hhEmNKx5rvgZTwDmIEx0Im5PBlqvGoZKwes8ZB3ccCqTxmy70PU0nDgkQl/xan7oV+LIGoWfnMF5M0TGRkCiG2gPzbiMWHIKHlRtj5tvBojhV9SreiuBiNlKarKL37rWfA9pQq9Pkl3xypef7pVGvjohQLMoFSCOIP4fuuC6Teqlf/1DxidhAuvx4FFRgBsKM47BzYfg16JjmOodxkVl7GzcQiNR3EJAKQTSfD5eeiNc1w0Uv+xW7O/dFm7DSWnXpgADhcjYy0mZmoa4Dmv0N2za2UUlhHGazWVQHZFi25M6/U1zIatfpPYClV8Y3pvYSEicdix2Y8XSGhuwW9KDSrXadthsg04yhU0BxzMAGj2dJDcLeXgrP0FIDw1SJ0mAkCCYAE9Wu5Z8Nd/HUNKzwPShlYb26TAN9DXQLbrba3AmHVuQ8T8anJXFsrxcKW/3vV4U0AZm85/eZLEQ8/jK+l9Bvj/iupymBFrnpEyWxJE2OcX0e7F2SGXjqiSoIPF4B9lZjqkuefIQfL4JCv0rBbIsixFJGfgvlX5uz/NrjvZTAamyDwhMxCo2ZrpgFyPptEwmyyQRg4q3fLlTaPI82f9XpX8i1V2096WLY645xK44bjU1KqU97hkyDc1lS4dr8D8YcFRrofFUhy8JIWZEzQHyuqB2x8aAJsbBJh91HldzJcHiMPAWeZv5xnAXJTLkVS7q3wFDhcmuDAVuxlgiJPE20TS7PvuzFpxFDUCaAp3MpWIknDLIJMM3mvv+vVI791Es7a23T+Y1GAYY/CWBXigBgyv4mxkgZ/qSgTtj+OIyBQbIrBhTECbWHRMdqCmbWh+p8msPhUcF1m/asPB4vYvzkAYnXB1hoo8I4HoXY1nOZ4BGo7SPW5rbVAHKn770f29VMrin7ca4UfUtATSkYeklNVD++0yiSttFBwpnI8fw3KJ9vsm/7sMTwioD2XkSr2JCkRygp+UIGK1RoAXDopMIVNewmWmmEudliD2YrfaDlf4nazdqHPUDCSfEaiLZuEEsiB3miAPYI6hcHvZCMZv/1X7aj/PY9cWCQzsX2SF48ckCgRmKvY7TWI/e413leIFFpHfLVA3a1ET/i44u+p6kuNd2YrOnIyeNtK1Gh2nQhYdOhk0VTDyM/djOic4NG/XHJV+1AYHb5U7/XQ92Fb/H728W2XILvrMQRjCaLubbHvFc3i3F/L+/6pWjn2u8blgQuIalN6OE5e8bzPUnzHJ8b32wWxe4ytu4wFHrO0mMLrM0Gytx6JU2AAmXNuiaX8h/qP6ivtCuoJHjUzLbulpeqTI8zPUpDEtEKYciBfthHrMqkgO/Re4RkQ8i0ZEx7NrFU1jhiNcuxSbctcfSY5bOshoOTfaTW3JdLavbusUXP2/w7m7Z6ELKWTFXiT34mw0ydxpSUItiy23TLSqmLK9b8F5eSuhOPqtsuXav8mDqQnSu08+MXXOA3nbqiiIhHXsx0FFmZ/TxZc0bsTTM8FURHY4+ixj/ALRvHDOudaIY3PK6TRVjMQjNiOFazH+2rwQJx/x2muGGsv+nLp905XWYigQMko0tEd1yiP74elhRt0n6SoqOZLqpyDTl3GB86AcsAoloaZYCEVlVTiU0/dgtr9As6JuxQ7LXhpygn0QEze+KW6rlSFL3fdI4hwGcy9+MXC+MOBqeKeRi5I7cc3MTrq75YyaIdyBtzxr5j+yWtc9s8llLridh/ggW/AGMfWqIEyrQPwOJdJhr/bEJfqIPwUUdbGN1ZlwPmh4ZH8mKHlTzXXHwQhayuTlhiom6FSNFqQx+ufPLFpTUFYrbIxhjkDDV/sLkahrV6Bpxtwi5SuFpP6ahC03HAYhsob0iK4mJkmZoIdHq+QH7+/bjthdk8L7Dsdzif+9+9UeANDwTg5Ukv40PzlA5LQkKsG2TbKVDsOn7sPkhtJgv/u96b97YN5Ygmn3gHMdwaAry9xhIevtOSVDPRVASAi+ZRfYvLXtVcF669cOWfPAgV5jEGrUw8SV5qzxM/2LkrYnV3Px/JSkUKrIGU1dMltGhXwS7xJWfewIRA1SwrMD7DMKCOYq4Qq0vZWKrXb2qiURmQ9WqUGxCU+G2z8DLJt2Xf0UeUQkuDynZ63Ry8BtkZW3plbP3Pwfj1qqzv8R/tfbVpx9c8FbLb/fe6sfF+n7pg8nYQHjUWGhN/6/CIPzZXyUeBca5BFrtCA53eGpRV0QaBe5juFLGwcel7JrCqP5ynU8G/cSfVBEgdk5lhownTAhHzv1zXbETXf/SuldIxXe6iXyecwvFHsDc7e4e+Foz31Q0dEjsFnsi56fguAf8HpQNB5TspN9A+Zy6s+PbHk1+Dx7EvVE3urNhhPFgszRCNlzQPKASg2G1/YGT2TEAoTaaGgu1XdzpH6Ptsic0TVSaLQZiRTdIKEILRum4FSptQrG0p64LhUvRhsO9k0MWJCNXVIL3IdrxVQakbR+I5B3TSK/Tp9pxqxMRsazL1/195JX8QwELhNk8GIi6UxmGU7oVTpWVFpJG/r2O/ttLoBulTq01frAE9vfkF4/UEZzNmswWjSNnQwbfkcuYRwTgNh0xcJh+1PUUFn8t5GIf7CAQTUjuhe+3T1U7z9w4QcHoJBwes1ToLqDwelSKBm15tKP0IusOATrh3BPaxOnFKmPCl4tzge2evy8SkX84hfLNRyUCFcXLmqMf88TKg3D5p25d+TJUc8L2tQJMefEv2wta8a4WcAbG6kfU70MdvREYkjJFgj5km6ZtSnBi147x/kjeUsryRDTjy/NNXOBaN8yOvyT/2aoHvqK+g+yJ51VgJkVaiOFCoyKiq+ApAzRqnv5yUxBOFv7lbfReedr/5Q8fYS2ofKt7LRUfDeJ5Yxsepwf00JMdbRFbarAFstajrSmxzcad2kWYjcgqeMT8LWti5K8rmvoe5BwhKa5vTloepB/MR9FBXAtMtmq8DGlXT8qaOMII0px6PMVMA24vbni84zZVQa7xR5ckF1+uKlXV7gC6CdL7OfxBWjmGItKof24unRInQXAs6A9ouBSUE0gQvG3wU2AY2oOJVIeQdSreCOZO7KCoXPCNGePt3p0uOr8MDd7JFUFc2Qh5ThE0dUGa4yUztVaeHslMh2SoIiiowkWKCMuzfaTCRHRPj3eQz6wL3EAEn9gY+/Y91b+uSgF36UHKqUpzJT64o2FZs/k46r+StSbaJYdfLWF9Yt2gZJ+yUWRNWnX5wzsjuFZJ6KDtnDa7j6ixp/BknwlwbqT96ClW6T9v2QAROETBO8KQAB+dJF3smZ72h75Q19cXf73yu/83YlJItTIzzORsTu05n+9cMiQxRh75o042XZ4WcX5IjNOoFO1kFm5ftsO6AMyln/L1vJAF7WpDj7yS23j4053Vo2e3aIo+8qJydBd0uoEgo1bENKfUbhfMuvWxtq2sfOv+ThvQ+R/xAY+cZ9JXj4FEKrVPbrbo3QHB+JqgGI/piniVbfn6uW+saWIj0gEkwEQczUsg0o/riMpHmG8roWoPc7cvXqCdBftpalnl98MNZRwWphdJkrzDs3aLekwpAdxqmTVOk7ZUU+u5ZekQiZVcT13sMezPAls0e4JrLlBvpNxgeDYf86dKMhHYlnCUd5pUwQYIAXwRbEl01AhSDxN2F8xXH943rtC4NXG+bfqICosUEDCWsmgfqgfi73mvVVpsLTkidSBnyLr65oQzTw6mq6m73xSeOGfUPsp988OShuVp0GXIrd6jROOzR5UVzSnZF7zzSzpe4qxG6agBvthJTZctRy+1Bx0VxzrkkfVBCRDGCZ08J6bHeD43CKjka43c9jFD9bP9y8bhNq8nvwrujf8gS29xXbIsqafrX4F0rmI9ZY5xsfrzbHO9MfL0DGQ6spBkz3MCOaPMm7jyF5O4AuY7cx9FR8frxx44wpNSK9+3oJNrt5IA3NQlM1jmy9DItWa9ngQSE/QThfqD31pKQpAROCBUpJNKF+wnH3G8jy9VJFvgd1h6rPov2ORFaS73pyr0iR+n4RsKHWeMCTMD+PGBaAMjwBP9mQWa5D659oVjq0D5PnG4ZuOHMEuNUR2sS5fmUd1feO//YChkR2we/W0R2nc5cCV000A0SkfQhm1rXij8o4SXXOLRXsHLdftfilvit8XnTpBcKRNRkytB9I0WQuIjY0I5XuiFDXaaVph7ol8Wv9jHbZ6xdzTGMs7WUXNIzhD4OKAeEQNPZtUus1PEDocVJEJUaFYlXGSXKAR4zqBI7zcy13ACgk3HraCEo4MPxwrB8CmlZh6S9usGKA0SfzvmciGhWQfxI3JRBxpuA2PzRC1RoPKLxm9BVESn2PpF1A6A6Zuq13RWyRMjFj6lZBOB1n11O18ABHDa+q/OQppY8omhzfJyPw4Qti2mBnPAwNYj05k9AWgd6Eabbl2ZwGGZnXRPrtUZab1Y21CW4E/Cdu4P0x1zUe3ZPSSaq9nrYhuXeyZYYi88TjyhNt6dlZPusWcNEOiGdoAXkH8y+uGFyRYeDIW4fAf/TZ4OQBOZH4uDWdphRxrFKSvJy1ufQrvVDRiFEC++O+qwxxsKPQbAE1IsJdkB3kGClq1HQmNvH+OK/OXsolEL6OFr4jU5XIXWLvkmBjoN+ykHAcYdH+KF6WaV4rmmSY8MMvobyixP/jdUpjdHCcOWsIlg935ojNK4V2qewV2cEbCwRX6RVaqHc/pmfbKq7RTlUl0GCGGWAlPIdXWKQx3Z+IOaAiKBGZtTkBxuFq6ZSR8+NgyXFXEW5dM+rMz2FMcy5g0p6SoASYu8UyPqcFvEn7nzpHuBxRiHWsAlokY3FEuJZLsLb0QcowhIOr/zpKUJkaTaIU8xxJMEWLGFsHMNEawJTS3FHH88kBu2ZfpYYBXkxnwuD3JiwphKVNPctxZ+aWp9b626qeMdRqtKxn1Rraq/3NcGHA7VnaACWyuiMwxisovuH7CnXBihiMQVDfdoTczVSxes+ow8LSTVKdHYs3G73s8JS/mCGbiPGR4j9DK7Kzn2rwosNOuCQuryr/6zzqNxUKW0oqSiy1Q5p3nVFulrkveXMeRkppE/kz43V9SPs3xQdlBpC4ozHGY0JJgt0aUroXyeNH1WzzM/EGJTFPbV4hbiz4LjhIlAh7KinvyeaBplIOv/uxkEr4IHIozhvhspE1uXuzTezKxXZ3bw/c+/vIVj/5RDnu/YKlI/4vnqvUJgR7TbLRCvQ6/do4pBB7gOm1n6U4cDZt+B6nnBeUd+k3B2eFpCtblypVTYS/qCJTsxWbm7AOwyh1EBqEcmmBKm1sfYcL7G3TuoQUuhkIIpD3xHsXQiLp+apOkxahKYOfYsz2619C1jfa1t1SEFR8RR3XKvk6U5+1oPZ9pWb4TFgJPRun4rhTL8KmbAhKK7HV/YXo2ciKUilCRntwcG1P946A8RXLof8DUZKi8iBAG1sA3kFie0XcOgLGFfxnaF/PAsPMLRQOaf5ZomFBr8qNhB1cUHTxORVZppPMEfaTcq63hiE9/XuxD45MYlc+FtHG4SIwbGmpY64/AnT8ZAlnuA8gHBh1/kQeKesHkxF/ZMFVUafouHd7WxJIqpLI62TdKwfNNQV7KwJVpqWlLEyQPrdzM6fhXqx9I7Kywo10tysXNQ5nGGb6kACP8F6YKude72CBeGDN0DgN6wGeHRyEtXo6kEmKu64NTVh3856oEuIGJRD+8w2lzpCBUe6QkxUFF9CeKJSbr+tXflrwud0IXfqPkntvnkFPbnHWpoOw17hI4ghJyW4R2LkB2UKrSWvgA6zCJfjRqzv2yDP0VucQ3UkFSYkbkHHda57la+lC6bghCVOc5aXZD3v0IyjYDRF9/gbYtMrpqZA4BUtDZ4BhI5eOLn1LHGbI/iDIodGghViV+U/0sJ3zbOsYTyOJO2X7P9XUlO/TyPcBLKmBLkfevYjYS8N+cYuWZ5jqGJLS8FvJPE4POKJHK+23cVSBP8xqe2VH2rOai5bHgBJ6XY4cPdR0vbUHSSYJjU7/ttAw4NDzdqiybMWND/tJo8MbjGI4Go7TnFLMo8R82Re9eugX9hFlE8Dt0FicbTbwafRgC26JKOJvLyUSp6t5LWJDujcH9Qv2NRYmgqCN2D4dr3X/pDfYz5mt26OrQYbtXWUxC41OFvj/66Z72bYmL2e2++iCxrZEyV7EPKD95Ndx27sBNJs11TX3GArxF/Kkct9M0TTx6bUhStnoI+S/mGAPswRSnK+LpWoUl+SmbMyTpYqoAiOQWGCnrMYOaE7XjRADyp3LGWOHvEQfnjLuIRnacurLyklftYnNcMmFJH51mzhhpeqHY+Q/N+6NXPav0+vzjn+DoYYyk4Z/FPXEJZL/BEflZXBS8xAUd6bmp7l2aDm/PpQ8xlqf1fn+Iqg+NVHnQ2QYrZ6aWvoPQIzzv7qCq0VIou2QK5Fy48SAvFbhcVYhsjrBZYHl7KLaQZiPv65bweLrM08bvH3Z36mHGPMyLXD8MKeamu2QzMJaLTsURb/+3HkZXdqwcuWqYnzVeFEUGi8wWx/XWXvagAaXK437Km88EbJgfwyRASkqiMIGMWiv1eJ0MU5K+s1d3mAOVvGwRxvyUHyjJ6Zo9bQkQcQd6LUqmN56ixqaNUsjtia2ootCBbsS3eistXyBb1p/30ZkH/KpzP5M+jjt9AG+lGmECP9jRCof2ikoCogHLdLQ8D9hrcQCtnMk91+HuSGd4+C2TAhc/xctIuXp0HyBJODOMBTjPyybit8Is/zNxWu8sdCOfbHjOg1YrLc5hBrPaOoKVxAjoLKnmd4SInASW/gQy2AcDZQ4wb66r5ih6kJRlS9BGVg/55ynv0j4r+heN3bgMdoq12eGk0sj2eoaRLSdg6rdLbMujw4n5yrY1/N83hIdvlqIM1tNI0m1Nzdrs3GEEwNmNGENUmBDLQpmWDHgN7itiB1GrVzGoTUveSLrJcRYPe77Zi6fwNDeYsgRoOQTI7LLFCFqd0tyhsAo43uIicZgmP1/sO8XZU9i8ZDwfsiQ8NRHOaqm/V6bGDnltu5jy5ZtEl2SrjU1PU1Wdv7U+03w1z7uxsum1U5TCnP+8btLQVw/kQZFnwuf0KDrgL643/rfkhlkP0Ntlrb2wJT96P+I/lixGTtILK8qoA5JotGAblYLshaxNeszeqnA+uca3QoheWTAt339PkT+S14gOs/wIsU2ZazyBh4s/smXK7ITSVEP2f7Wd0joWlycENGr7eUuaHub1cXb4zLYlCH18d29jh7VrcZPAuYNTuqmt2hf5PPx2bQr1FPkjtdBHz0zk8KxFe2wB3RLbgF0p7qswwjy1Oi4Udu091MAAVLH7qj/JbaRTMxGqgzy24iOFfCFhdruJZo4gw2Ugdf8EdsLL/Co5EkdwQ6daWC4ntKdLGWgPqmFQumdU6Sv9KIwokwhSnhmHgtA00yhD3eT47AwzizbzpfX+/O2RcLcLvc2StwYRQDy28rsa9VVHBCqwRGYZloJxMAHe6BTp1MVZj89pnhKQLyFKzcuviRjUPHLOxrp+G15of5M6JFWjjzgIfFI9TiuC5n1uuOBLEnYa3pQ1LC3GlTlk6buaft+PWtPx0CI0WDlMlEj7TqAJrXvWy41jTYhTysi9dZ0NF54ztrJQSdTefGahKdOmnClnAui0f+iLFqj1wP+DjABK9nicD4jrKDywNnjRmVPIkqZ7YYFGb2TWiC8Mo7uL5paqcmqiIyXNGSLqxw48OtwhLVhw+Mg8gEmKlv029irV1y9oz4bYjpJu39E6x+gC6ji5kLOkFr+qJaVoR9H7zZlBB3/X8jSB3yeCw24YD/XcWbAMtyXZlkJJ/dtEvhB1oXywzOsbcc9AJx0e3ycfFOW1/QyZ09O7YW6nS6qckUMDRhEP+6XAELZrWF76oCejAXteBkZISHLB2Nq9Eaw5C8gxum+nNDEMs+tQYv++BxrxGZ9HvYWde0sigXPuG9CmuEu/4mFvRxuVIZXwWipLU97GR9MokvTFGD1TJacdCCKbx4EPw70K6btPcWeqZxa9CK3tgfE4AWDASy8yQjEnYoDmRyWu3ldNwNg9vNc6eJJVKkVmFRnqGoKrV/TlWTyoVoQ6jCqBldlzPYkca0mmOqeFK4nCuUuk1WDqtCzhxnimfSCeleZCpTYDL7alZipQoR7RVpUJpQadUHAfTb3uymyi5XobMKzqj5q/8gI8R3GUbD07TKXHShSEukZ3C4sSRBxAy0FhYMw/ria4O007MyZT2tzmZUdJ8msBV7g7+KTna1trOgZ2rOyxgzxFcgxofjDraB3humo1LWxbK8tKrqOe6L6bzB4uAon77e/JXx5FcQp0753MJnvZi6cnjk/3r2u3P16//Si7PhTXRqy9UbNu++kpvFLr4rXG0Z2456aEGz+joa5h6bK9vRdIrcpKAu52PGkHu7GdGKWLRtRllaCYbPbxmz1s8TKBzhsMzYE+E0QHfGHr/XUp/5vNdjoBEOIer3+46fRa6UhbISuXyXn/baaf0AXAgBxDkgAaNRpGyzz+Ex3b437jZtSrIutOlu8y55D1JwtmHi4XqOmtgn6+hiMSPw2kouQLH0/z2jnFaA/vwCnrWmUgDTcW+WKSaDJ8KgY64zkfLeomVr8xP94YWsDWP2OuVdnlKBU6Ns1hIyE9qmRyXSMHeB97UoTqpaexa187aNlFNMp+zx9dSlc/0QrsFWP+H7GWHaI/I+fQN4vC195xDe60MoYM7rEJ+Zb2uhFNpBN18NrV2CfGp9kvQyqAd9uFn+XLM/W64RiYBJ95XGILN9Oje3xbhR3KW6o4cNZcEGo3JrJyNCz3YiMplYjK9RD5t9k2vxO7VerGYK+6WDJZw2JRmFk4slcbpuz95gSapcn48iyRGKyEG86cbghf+oX1qlDtsJ6hM5q/V9w/1RCRIBez8+V0JJAXsA8JzeKu26BpsxhiuLKPZXa1z/hYpz/IPigW/Y7yfw/e1uOHfRwvKPqUtJFitSXkOq+iQ+XovD949QD10VF0lL4TwQozGGw6TeBu07NGH/yOIwSL6U0/BsBI7zs+nQWkWzbWWTCK9LMak3W08PbTmyCLmK2z8tVvTAh6GuHrwS1JBoKxWcs/3NVEsPyIKQIZg9kLrcvDNH5/fB5gvTD98gmWVzcseWmpT0EdpIWqBNryvjXWUr5FlS9RsopplP2ePrqYEa1mh8G1Rgvvce7OlxZ1rPIo06K2CazPJZKadz/wIt/73UolF5CcHHlztvty7m1UBCi7sLyIHd9LeV0Qyv9SBZRN86+qC02XKb7yiegJnGl8E2JcZ7X6S9NIVhSTY94vBEntexdhFumqGq/HBUhbJp9kioHrYnGpfyBDYA95SFDwvoisoFr+6uGJ0wBdAdmvIwOOIJN73ziovKRgby5Llqb+LhBgLD+AsiDyihCx3myi1mdksDQXsP8Tl+ysXepL2T2s2/WdnLQ/ryJX+tHHNwcuyHVEfoDXUMCPUT/9DmLU/uaMOtAW+NU5G6eVrNTvkIJzXCmttQNkdn+I82uNMupmK4BrSNJV/KXhRKs6PYGhp8KDH6DO/NI+e5j/zHCLbk/RGKtF9QHcWclKr+LcucblWs7dD3OKHkPzeCWpH8baQHHqvP6M3742RGv5utOmPVdBxcJRF4ciGvM/69KUSJMewH97IOQpC42INt7zlXFmazZif5VP2ymwNLGac+F6mHkH6cIaH42MlPykIljul3LvoaWicqUNl7wcVkxNwTOHYxnKNGQh5OQlvlKUo2nOXJd0CHKwmDpryY2LeiaGv6aV7qUQToXwcmIwLzeo2DIJSP+ixWtvumeOq/zL2Zi8SA4bnP9Q4yb1p0ma5j1VCwQNpf37zY6jyFIOnH6JvNnWYaHVSj2U9KVQYKPXzzm6AOa4eP5dbTnYRcDRuvEMqJSCEcK0l/QBdqOEQJAN2y/2/bNDuqd9TNEFMCMu7XAXMy/7hDI48WyKNKPE0uaQns8Domagob0LMLeZB85GEAZNLe/KNOTUrMYlBgSyeoM8nggbxpPkmY7Ac9cEE5pERTgJxzHqgeaap8V3Ll0zX39zSdc13lfnvtpii/EXWgNj56zNypSj+Zm9VKH154NoSEx/DNdEG9XisFbpDYuUM7p4ZrJdyUetNksuFG/MexHyJSw6K8Xkb+dio3OInUMo61jPnSzEhorMFk3UiwZ4XaAbYMEAjCedGS2X+DecYOlz65rA+F6iGSqN72ErTjFdXDwoj2c5K4GKHcdUGpEgzw7U+LNgZuUTlSGg0ycvaoD2fuYvErXAFrfC77IvKKnd/0GxK8/SNEyIeJApm+Rm9GG4CW8Dt5FXAYCnOLezXLJI3rqrergfVj/gnx91F2y7MKnCreQht20iehY1IdcBRED8TT/iyCUJkajcOwYS6ajrEn9BmOSOD1tf0RkomGdHRMywrSIqjQ0TQ9eczQ1aU97G9TZvlrJG5kgfDlXbbznkCR4V6nsJMRvQcLDdeWZmAZH2Gp/PcWwV/IvaZUw1nkvsVLZB5nsclfkHqSNB30xsu5ZCYuSaD9DP5atbOIhTQQHeSK9GOOUwkBApwN3Tm1BYswzbAqm90iqN6RD6gwZpKMtf5PBmEhUCMc0tohbU7/ozk6gAAAAAAAAAAJ9jUbTv5QnvAhnsDpjcvP7C4tUb5Hs+AcIAAFy5DUuAve5LCrQBQ00di30x8GpKgaQxCcJHcaGgCgIqEr7UAkxJvsWtupavk12Wywq8MiCq9kljULNSmm52h9ryzDnLFaiLy7JzCRD7UrWzNVbgncRU6aRPPFINLgUaynu+X7HHMC10QSTOzpXNRKRDna25cBJdpjWcgYeIiyV+T7FjAXgugrsQL08ne/LSldS/ECLHJFOPOuwZahDbf+V7LtnTqI0z7l+wjzR0DiKBoaRG3M1emNqM40NZPUMf4QMedf1aD6GzxVgStq2GSswmUpui1gSqnVTLkgpx0sHebaVDdwpavibPJkjGziaRCN+enZrkGy1tm842SOy5hdSSFJtKb2JqAoeovuKqY2EIekjy6zMqbEKEWc3Hjif3xksypUMtO7aO9hflKBhN8MAqc5pwOVRYFLdNl01pDRSpAuRIuRydWtN3TdAlzcYGy0L7AAlnGMlsRkiuKSRpwIkNmCxsLcA+wTy49lVDER3tb02wuDimztOsuO8Sgq0MlM/ipoprVsm392SxuKFMJbhn5DzoGOBuwOqRXE1B9iuvcmd3IV2QZi7VJtG4rlqaVa4bZnrVRa2oBijWdjKLgjmQyRYRVDKJvMPEG4OOB6K7p77s9aK5sMkLAU7uCIdMsHMjpf+PuHvwSVejO8RxLrvfa/iHTv4QZ1izIGuDP6KkMMcsR8uyHhoumX1cf24H4aFnIG9Et4/qdwYME+5JnVVbfiI8rU+Z47hRihz9aJsLQ+rHaPLbUHdCjhCnOU+q1nQG9HS02vjrYN44tHGNoPDdvam9eqDowp9egoyoqWSSwgGUidsBODnVrn72nDXRIT56un4BP4MiNxotD2hXDlMdX/c6q/HfGI0nBXxxDzDEbeT2ccuTV0szra7HvHa9shXxMym97YTC0U1SmhMV1znxGLEE6OnoushzV2FGKTD8DLE26zcWIN1rcFlqgmtQoyU6ZLOfgA9nu/8LKchS1hiS5uz4YU8EWRGg5vo2B7MPpQQnYk5Fh3X45G2srcv3fXApnxXDzUjZO9Oc4XBuBr4jr+xD5ZKEwYmArX24C2li2dfn5GJnjzlTwhKa7/8psLPHYjwMSUSXkASCUjM4VxGoSQXtMfzmfbE2RdISdIpfmK7UFu1p1BjGvZH3u+VtW4sgI9Q1Z162WRJjDqZB68Ti6QogbwGMwpf2W65w1zfFoHHoX4AQ6U4icM30f7ByjGYg4PqYnHHOjV8XgJZPL+HK+DsGT2wqjokjaecnJg8nTZTCqIZWBhcvupKukXTBEv9cpPkXvtE22wkbrfBTbnKFmjya78ELPiu3R4qnzhvjiKXx5pmj8iqWw4LKVu7dSBGQw28HMrHFX7hBwU82U4RnrPx96ydJEAOEk/FuxGS/Q7Sk3K4XEX4zvgmKXxwA0qTDbCAdHT/lvNlKmivIh10PpXq5wrt/j87wqb3enSsOWgfgOkvOdNNyzdVo/CbWnlWo5mexXdMahC3Q6MU87AF3esYwA5d6bInsv5zHPRzqArWE1Pj0RnBKSCLUPBlAxzdYqxRg5oYJ56PAxNkhL+91wGy+IDQLn+oZgpLApM3F3m0JwRw5cv4YZN1steDxV25ReOrsBRPfUlhc7d7g6UGbdpGykfEgAy2kmtgH635LdwyrNyFgD9IvWRp5Krv6/EZOf7ntlPivltlXeOp3w0Pfxt3WOaOeyGbF8HwKdUNqnNFLI7W8QGtsobDhf9/vuVcsW0WnyF6IFTGO2iBiZQ9rnF8B0aISJxS/gndjZXD7Pg9UEZf5K9AesU93ZOz2Rz/50scKwdNYvxSXB7b5irXTFTVnpnu5I/yA2N2PUH4ag4Tt/IL0gwXX3MIYEavPmy+DoGs8w/33xyZ3OY0slZptzlf5/KvPtgcbcZEa6EGqGjWO1ERHJ594+jAy5otCFsIxSGnfhDlf4C9C+ShseyuVLATdBtmRPl+qdqtmjUqgfm57wwi2LCKJ3i7c/7QDoPPXcNK4JiTTkZSnyRAZhxlqJrf8zbN7uo7n/uNu/ltf9kdYtbuWRkIhyIuDpH5lWqCXQ2yW32CtTAOY+wuhP/kLrss563XO7X8lVbwqVXwQtbb1g07kcbcIXxZlmcE1q/qx25cEVnz5F8RNaDML+V+1+t+B9IljWOQmGlaRKpOE+ZkGit8BMIMo7AMCfoB0MlNJrFFh8jNkpi3z55hIw5b0t1MXfa+85BujphVy6jp335J5JdYfPq53bMi5Fuw3SDrPmQX83rv66ONB4jfyptdyZJknKDE1jED8gNQBQvDQOaHad3ZFUMee6BbaLnRIuHAfWMid0ZufN/BNeFQIBdJDpCTQ/pk6acS9r0NgExjhi9nNHxws1cdrYPbd9q4M/sxoWvH0nAN/rv3EdrouYNm7n8uPbGhXc3TAfDEAsyunhdRnHFb4GPyYR9qQDUUQ5SmgWyBVlaYIHRc9f85s+7fO2LhKl3vBmtXfE4ZWSCN6prcjLRtkZY+iGmSCcTx9jyFnPZCOQs7Cv+XoR+vHKGta2KpyE4NkSpToWo39gKtBXccn9+d8UmxmTn9MLx8EbxnAetgk8vBBDWoogY4imtumP42Eo3qfk1dnPllBxww5WwjjKNuDhOs0kPvkllYqTeE6PpWfVo+cj6kHZR0NnO/iCGpY/zLItBMjAqYRBlcMDeAyMJxXZtn0GIGV1xcLNN3JxgqR6ADD95Rk1IhqxfKUAhmRZRUd3HfWx+XYvS8lv1ZdvIvgowQ+zWSgZIZelPZiZbmrn3T7ynp121ml21Y7AFI+LgJjuPGbWpwkZoPAhzRKZwjU/Tc1bL/HKh74oeEgesMQxCTeoQ6gxDwyo1LF5FAaOlyXGOwC01NvnwcTBvAFwj6dbOTBKbpDut+Kp+bKWnOqy27AG/sUHm02sgy0qi2awvGKPvsZ/BBQ9CtXgFOi5RmqM8egesQ64BXwTL5D5xIzORXtO8yWyRD/paZwTB5IOyZ/SDYmrVOIclaTqM+cDOBxOdDRwW5rnX4Su7qzm5u6i5VfkxAfn4ZZXVLu7l6j+nATT1AXeTZC3aLLyl5tQd3fwqbMwN/XamoTJmNqZlMLXY3xpmDzbfFv20dzy29X3a37oN4MW5OIbm882wGSCbF4FrifTkeBQVaU3i9f5J5jrDXIlwlGHGvt8C3895nDmtVnWJTaVNz/114zf6TFLZUgZz3KZnFQMNVtMe3EY9KN4kL7ufBiqVDAnxKsjJbbLNQ7HmxZDtGQW928d2JP4fc9wMFaDfeRtTaaAYmE/j2Jt1j6hDWI7DCeEoIv7AOjrxzWO6kq5SxDEUNasIExr6RJJU5dCqR9Q/IiJkdfgorBzhX713oe+172pwkZIyrTiaGgPreok3WJk7NwEy0ir9giT2zv8veuFAijlC1sgZNO1nf+wWvBe/zpIuAC1H8c/iW8tSgzPpssIKEpr7nYv9HmctdvUxSwczwSBHxwpsG3KAGG2ALf6FhwW2fo4SY5L6QFM0P6DnG9T/kyeiH2igwoEWbZJ0wWIU7z2Hg3RTklD6ejyXWcpOPoBfdBgAUivTxLOBSffX8a+wkMjHXSr53DqhH0y/DHChZm7bzLqFIqUx4pXc+AClRBfzGxdpm6c9juY0N8vQKFby2k1lhv++d+J5W0FCSgHVTxm6DXN9drPvtBrJRfIn7SzebIJJfKBUWJU4LwRhCWqfT5Pqw6amv6j2CG/gIksCvJ49ED88XOnedr0YlhE1XU4Fk/E0IKIaMD6WKhkBN/RmjIdpxi3BCo7ve1QAkW+E4jE8qUfoR1XV2YlZhgLbUhR1ReD4R8BpWKLVK5SzikcBoNkh7e1upUNXNRlmvhSY1crznvP+gNqea+xVkXNU06C9JdiZLerAzP4ABcVAWgM0MXStAJUHTpcLX0TRRHe986wuXKzBM+WTA1CpeRyYRYRBouAfhTBkJCNlSCZLI5otVlbRwHNy5MyBPRq+vSL2O0r/54w4bHRmNb6J6Bd0wmlt+GIsmXatFyLStar4VAofHmf4uQMtGdmjzCTNBEbXG+kcVAn1CboYOofPn5XLVtgLUNeV59l8prqEUbSvT4vZLupsgdoQffP/x/IOYI3QBI1iTev8UsLQvylDtwzwdnjwZtcVa+JYMEWFoZkM9X385lMZGWZ+z6JMFVzFAmnJBUnfSLF9vICA9EDZQAGhV1Q3ojLK/RY3cX/eQRNoV4su8nWc/CaQP3kYibu/MBZRrPgpvGi5mgEseJKhNZPeR4rR9eRY0/NRsoAM9YLJZsReZpI0GYpV1nlb0N0jUfyDspjeSJQb+jbIe3oGAhB9wRZX6ZgXJp1qh1qm4Mae3ThN6X3u+0eMXauAZhowhsw5jULp0TYJzS/v48iu4b8Xs+jAACw5EBmffbH6PbEo0GnW8/C8ItUQsCArEFVRXNdOv+wEbVsB069NeUv8fRq0OVou4jk8RhgLA4/BJCIrdV27YyWxnHYldOEbiPs0MA86MFwPdWXZjZE5NbqdzN4INMPgZtWTNQ7tHJcN13uG3PVS1FZjP2M4vgSg+V6Ca/GAq6ORQ7YQ2EWYT8R60BEWHWT2VBlimS6Zb5GR+nHY7BmWHTzoI1u9R2PsInA+6+9pJRzZKbRzeziQoZ5LZ5KBrYJDl/KAc17d/cUoNznbtC9tyNfR670SLpbgHsrl9cTYj1LAyutgjeTJZvPm2BJ4gABupPofYOORzC9zydommHeQEw/7BOf49p2fyKNo1VWB9NITufvFcNxG/Hj7H+gaI3lng7Ji0K9B7inizBQMzuUBoJ+0gACi1UdOO/tqoIsO/iln2RD3xh+soiW5NUHRa2FwPbvVhXn9DNSKBjTqS+eElffAcUACBaqaNSpYKVSrp6DggqUf0CgnG59FcLrukSCA9Xuxb96SbAbIz1WZaZIq5QO/ya73ZxKzhu6DeSRaiHWiPTwsX9Lejq5z0qrJZsdNKYr4z5wWIO/rHUlzCa7kDCcoaZpPAP3GeyhrvhuWbfUg735V68CnT+/Okf2FeJzq7iQhzqe/rCcl1faIUjY8/ZddJnt/+pIgyd2pSfOUXBclx52dRhv7ACoVUIdg32dzHXW6iOwsncrSegGtm4PAw8vAe0DI+y5wlhkAKTdcXTkozk6CAejGRJICMmO8H9byTp9c9YiL9TlgQ3Hrr3WIi8VSviAIXwSUbjPpJy/LmnNyYDH/RJv+c7NgRoYGOrwKP0teVbDZGHydyLnibG4v6HRmxwYum1Edju3uTiauCXnnbWu760oeZIMujgpLr6RGkKcg75r2aXPom08PFAXAQ0elEJv0QGzy+dEww4ERvJPaQap27Cl82jhtiJgSERRgNL/aQRn/0N5+3/pLtMHqKe94Jy3LYtMigcWw6kZxGJLA8BqTc/zASQCm6fmwZY6mJeET/bjl8DcDmBkP/4JwyK1weJK3muAvtl1sWs0q03LfkTVhICBnEf/ZjDFyQB7xlH+ae3skWSFpepHOfJhshdMc3AHzJmoWy2mozZtrBLEItPx2zUIosPLdVy8UAthYZbivVoVQzRiiCjBm0V3nBWykLhsRlmv5TVfMZZ3EtyEKYf075WKc83Me+BJWtp+eo9xsmOoJM2F+nE4ei09Nh59kRn5nx0MsPekQyv8SM5YxhNBHufwGmRLHRe3N/GY2JtO3zD882jcrBpHBlEMoCPeAT219pv4wMkRvLnUeVOi1oKnsH94I/wLTmsEd2fl2vEUpS94MJxJW1PZixF02sgW9GKC45sMJECpNI7m2ajq9Xvzvk8m0KHEJuHzi134DdcVRLdPjHLXMk6IvbIRY7Sypljyez16IOQeTSZ4VQM7ZDaCn+zzY20Rjm3o8zL/xWyrieb7bNZ1GJ+XujfJ8Wn0sKtg4hCX/k1oJmsjRyN6weVj3a3hiKk1WEFUfYLRPhM3jefZhWgywRSjXYSedaWRQuOBXOtN2aKJIdxtzYdr2efpIvtF8T+GjXL/VNCBwLBgrVWFuodVMG4gIY/BoVuiMtlb/pYK9Y8loeii/9Odj+QMAY/gw3mgS3LyYI4QBvD4le04tcM5+xfNjtmhxNvcxlj3URmg/l/AuBdUhID4blS372RT0mrtBrdUk5jUwFlbxZUs7atjiL+U+Kf0uhF2qnQkwtWG0odC+Tc8MB6xr0EzDgCnXj/k//iOErnSxCu/g45CvpVHlP8kHp9toNNInz/Z9LT18egk/jDDx9BpPMXky5Cg5aCAdDs4fd+laF6M5+PsNwdKbe5vOPIL72qO0vjh8vTEK2AYkjtufm5rK/PlB45l9nEFsyAHRefy/mHLf1Cv6JughTorqnEIudolys8O9A4Zwlsc5H0YFZ8zJ6D4lW00MJMfHEDoGLbkvV+6VIOU937/W/f1s3bpYm0RafkPqLghRznvn9DvcnpK8eZ4KTcLLNHWx3O057LF3m1j1iILYmOVQapFkekJTF43AK5W67+kn9FWwcBJIqYcrjDHTKsl+rFGJVvs6B26JD+kR3HSTHvrwivoGLr36ND6gEOq8BkQZo+woM3U7OZCLGqQR1dm7pNDXKMuzz9Qk3hY5WctDzOBc32nva+q7GPNaNOhsPMPgqpyxbedIRj0jy7L5vT9uhh+/TIRBc/Yki1Q1ijN/ufKqdzKG76M9ACCjkIiea9BPvRbWJEQec56jr8DkD4rw09pEEGa53FWkmgYBG1gBs/VabIWb92DP2jU3NeWexn+na7lZG7CssMDGVD8jv2Jl11PhZir7rnlKA95RKvz+xirnGqdgf5f876bcTRt76n5jFiqhYIcuhHneYfbELis0XJfd/1bidiVD3s6W6xpUFzhYz9Kxrp2NMYFhvYulpKgS6GvgeTUp5a6etuyV1G4lcT5kqFN5KUa7lQp58wdaNF2VhxH2FuP6DbXhLIJDtz9LSQ1c/DMcELncYnINz24M+SFRNTLyM8AysYtt9OhPI3gjn5IKPDjJMPkqJK9YMMZWCC0MAfhfNtwqoO9l6Wq5m+DfLJMNCw9CLK9/51wosThIKZvWErnxK5t2dL40TKKjwQofjTEPymXo7Bw7GE2Sh3Nmr0JjYH2ERpkG+TQumRwL7Vxn+c6uhJ3wPm9+P8hXoCH3hUrseSC4pi7Y5fyrkHclKKPrtnoWpWDqH8iDIs+Fz+hQG8k9rApT8kMsh+fKLRZet79KOSj8LCixxSK8U1a4w7gSxsHcVRL8QvdFWYioy458h0SXHjMqAEkSJ1SUdIlSHxcQIXFDU4hQVNXgtI1cny0rL4YsnV5WqW8fPSRAmLKCnp1IMj6UYGDO7+XsXs+BIJo5Vuqws/83CAGuiP06acK8zU7xKl6IS+7jvrGWE6StIA1I8PwEFXF9h767FOEtTg+qNgBqLFoqvjYaun8lvzYfXQezAL9HwS9WVxabpxntxtgdzAzn1u44gHDeulBja2NZzRDQcbiCgmc1aTLV1cJFHu6dTg1kBRzIyRy93Fw1krHQa7ilIwdLEQnecQ7W9MHCx/PAVj8fHIX9vGnDMlUz2QSqkoDo515LB2cd4s2CMiVquCtQ+wEFdE6hW7lHqAmogsDaCC5yqBfdSMoN90rVgWWssfScIFeyWIZnq6H1MOXUfidWPX0XPwQoE9tg+Fpypz8C/PFy5+SPdpXL806qSXNacF956uOQJWOUktWU7rOsr1TTtwF0QoB6D0qlQ8lMNE/Nk7X+vTwUdWt/ByMSFAB8M9exrtej3QPxu2VfKAmH9eQ4hA8aG03JXQnuUbjmCrQwvBoqdINIvQHbiMjpt6ad4OESh8aDrBAv8f8pNCUWvZmsIlyayGFZBmdlxfPNwatkjkAHDeVkDbeDjnqj30rdfTfYie96NfEgkop1YARxyXhOP6T1ZrbHuHYU7cXj8O9rMz3Uzhz1LtobUOItQM+6yRenSFU45t774hf9Chek3xGf3y8HhPXAdKv60Tc1TmoCsIiWKcq3PShTyU5cEl8eD1KEiRz+tzsYlK+qcumEdiycios9yzTtjyFUC3Le6n3X4Vzky7qysJWOATUvdpOnRv4eSGrU6Hkjo+QI29ip4+QMzi3lE5kbLvUHMmHlcD8cO20sWj2EupM1ZcjP9SbpvnL/1f7sj3BHPR7YsAhLjO/3uTp+V/Khs2M+dmmOs7qUpuU9qAF1jBw5zPEgCNc0RbYreN76Wum8i6LZQQfvGYybnlhYk1aW/dfyHAZF2VMMbZ5+lbdtB1Ty9nb9MTATQe/EfyawJ30NkCc05ldi5wboGDKzjY0+axVvgF+qa1Ej4U+ZiD9Cj0ku15O78kWx3v2aKrKvFesGU6dHmfrLTbJLE3nZ7SYYDcpNF8kjWqTf/9evIsqfScGoaraHqL7RP76Mp53DMan1JFzx3Je9pdNJZuw6MZDvcFv0JVu6sUREcobOKYC5Sepj4e8/Uw/l+PmAAATbJpAXehaHztz1lMUU8xA6iGHF+Y3sgZbphX3VzAclnaiurfjOTIBBSNYp1/sbikQ2Ntf2/rYhO3djime4DEFIvu03ffJoaqIO1OK/PG57rd0BM+Zl2XuOYzstxz8lRtgl5BEUkkG70PnkhaWpsycqi6gHbUeYzwQ+IObWcmfSEflT4zaW9FMFL71UXD/KRx9esxwZifzWvnoBmE7WkEPhMQCMsKtfuJ+3cWrgnsM31BJ0d4VoehImEojJG+PaIMls/axYszHD7nGEsoG7KwLzoAm418mmJeMiZr23kDz/5M1Zu09zd/CLFSo8Eq+n9RJ6RQ8LPoy8w1Ys7bm8O0dmuoK87tiA1vJTeMG632Asc8NwLbqYPsMU+NV3K3bBqxrXCDvfRQfCmfyXgRBM/5mTqYSpCl56aDPmlvERFmLM2hfykYOdF4jLC6/LOlieprBYrGxjR8e7c3SwlNqlmDK4tOuBa0KNG7D5njujVTQec91fj/TWd2BnZcUQ7Tmtd3on2QJDhRFrePdC3CdcIkVpnSNvNP0ywV2P9Jk59kLBgRgGrjci+cYjdrw2839fPJ3Z+OZ7UavUG07qrQ0ErNY5VsamQNQ8Vkw/E9+8UaLTAV1XZon6tXbtJlK0YjTxyPt7mI8hIejLfFjHQGiLDvzWrnvB6HnB7BuOPPmQWCkIRZFahnD91CTudQ4t699vK1F7q1J8UcM2LXHiPSD94RZX3+iFAXItyuo0/HRYygm6/RC5iJH6UPv07QuHslRmXUYk/qmbWcGexRC6v6ymVUdstHVGJ4SMp1LqMeHm8zpZjx8j4gex2c6taSJW2OmV/Jdt+y3O1bN/qSUXwiRFNF7BQNj3g5o8NCzcG/wzbd48SQlsixg88OKdam+0QeypW1bolPlbKBqhP8N+43D0OSOvN3d0Y17dh3owYxkGR5beNqe/NPp7j5BojSPGiIjRoVBofNdvxJnRHAsykPgg07/AbaRiOa0GaJ4ABP6q9p7GjjDuQWf3u4c6vebxj0yqfF2qGvyM6Go/BShHASfEe8Ur8047Vg8Uh9n4IkLE/XvC72j4GAeTBTDT756+1FtdLfi/ryl+FXPvNszRE/V7UrnkLay009Ka/zzrmKjBpVh++6CBS5ocJm72mwn41l6QpWjVI9SCbqdGFTgIfKFDgEk2+8NzJudC16mqN2SXmfNavdre6IBbZAzVydIUheLazmywUwUPLKSZQiJLxEripPhSuve/cmasokwp1/5eXNAQrIUsGLayek1TMYVtbuFeNS7/6SQUIrVrGjRkKaTmGRnf/slJ5Bnx7sxcDivSgzLvoIr8zNukftq6ZrOsUrpGtGYvhXfMXcD5O21fftU6CLx5ePlxWvGxiCZADLqNMMU7N545qdE5memWl8gaH86XFY90wAALGDQ3ScuSN2yK5AHVQMYDDPcfwfoO5PSpYI97SQgkt0kgKuTOMROEveIpQaDWR4O3x4NCpe7QrClX1xnvcD1fGZoTPWstMJyCyx1CT7jfHju+LJxGEDnxQFQzKwywGTHPY+03SaIZSb3eTJb77EzLcOGwiFYcBwNX1ZHNZLPXzR8sPIm70fZtBNqtnlCY/iMHn6hoYOSnUKRvsnQxjcTP11jIjCYE5+0jnDukgSbabBmyW8C4GvQPD3GQkY54/K91KW0sMMW7Lti4JIq4I3JLajbB4Ixs1OSCOtKoquHc5qqFnv7quvYAxX0/Hq31yyrPapXisJv9zcJBvlkkkRbAIu2eYq5HeMeTHacanSNqDyf9MIw84zlDBHhyx1FKMB5ymXB2xZkhcEJ9VUaWDB+BG9gdaaYwJxIAzsGoFL9s8Rb0DfytuGicy+73aZrc5KJM4A5YTSvEu2X4GBuIH6x8sBaCRTx5S8j+M9D9jtxIXftHGzcmQ1QEARLiQBorgyT/7szODyTVl/2V3JuOc3hvHDfRAwZzLWj5OqoDwoFNDx7pXCQuwJG06Tj8Tcp0XUA5RW7KYZ9GAV4icQXFSxqp7xdR0TFTVwdA1pCGDxTon/FhOYVM8cfwF7CGj7D9dIfXtQ55iY6z4tECNMgKp4CoTZ0XLxdWoaKS/rL/KAzmmODs+8hOWv8xE2dXapJJAye4GPV617CCyuJCcw2lR/EvGYU27qDo1pOH+yVi976GRk5SxfdPKWXonNixEFXDeEhpqgKo8CdMmJHxG2B3d3H8ICh2+v7GOekAQ3HeN4Lt3G2F4bR0BXNbx7V15lVIynb+tBG7n4J+gOJPAVCqCYJ+gKb/05JrH7LuEcBVfVMpDB62/+KRJZMIjn/mi5sc8MWGNgeSz7PyWutH3XQG1cbN94aJXHfE2Ge5lCZFxKgesS9Z2gXfhwtMuAAnKruuf1jGShBhTsCIb8CgL6w+L6jUUENQvDu34i2zX1M6T+DB1TLsVgPotM7BQKVHWxvPUIcnpagaSKgHKhR6un+kVu7OC3Dj8ITyXBPZjg5EW+nLTXjG4aRuziTmzJfCt674kx6UAuyWUwXj6qa8BeZVUt2b8gXHNOZEYyFGyuZ8hgezDIuBtVcq15a7Nn244c5AyRgstgOO8Jv9566H61YHJ1GSFtKF0C5lYIYOb1mrQ7XOHtvGBZ4kFMB0/vi+jxn0A6d6QKCE0NVMJNV4fOApdDU5EIcYbdcs5CGEmvmUPHC8G1q2nc+LaW3osz60Fws1nbRoKlfK1cS1olVCb+OpMQ5npgrZ61dU2m4/EpRJWrxqQIXFDO7gjyoTr9ZfCROamW/dB69TB4E8yG/rLl2bvEpWbPx+KC1UmSfQEYPRxaQzCLgOjNxZl2pA3PufzaL81U5CADvO02ilWRcgWi/mQ+4NtA6Gm0kWsWWuL4BsYVXn//0kIC8JPZVnLPjOlddQXQe3SlF+CH9Vc7XsSnFdpOcg61XN7gdPXr6K2k7ehSA+QTzyu16ndEz58gZqujzyUbkozXrV3caQthmvBrOLgIq3Tsx9kNCKutGDU3TrStP+pDWDJp1AsrsfDBNQstzXfhxx3GppMTZRYIVGm3hOMsGHofsZQYYOkNHcf3IxMKgUbTTZ80crMlM1Ewb8bC1nCClH7WFGog6mUKHsxB0y9nOb50LWpYz0dhCJxv28V9sx591vyvrhYbPbGLys0c1K6VBYcwFV6Bc1eM807xDYWGqngNAaAVEVglKkaGwfhRSTzAeZgWA94AkfFdei3N57ArVKaZCzHhWPHgoEKk3UVepyllckeH7dtUqMz9OnTZBLENSkpoTX4YHiJQgcIyZArOyirnfI0XYh0U+XpydNn5k1fOq7iCGCzo0yheY2DSJHAmL5/NY68S1SDtpQOaW0UGWlNRrwQIyFE06G0rdRzf2677UhWsWAhOXIqGAwANQQfgvXEhKUHkU7BDYioGLTpEfN7WuwsQm7NYfv90yeFR/x7+Ptc2D5D8+RQCQeHwCD+g5yZwSfprTLt8fNG4dcK6GY7nD/jPSq3l+DuLWwUWvHbr15TEogiEDuGla6XyRZuV6drwWQQXFMnrruj77nnPSx7CP2XYNh44yljmLnRI8ZBAZ5EuJGCgyiQv/Wnnf+ircNZuEF276wRbfM6Bmbex/Fl2+3MzYXgkBXgg2/RwhGLQ0Ap9vxrdOjJUkUgefL7ZvHlO/2qjMxsjoy+uRS0fqJDbvwvjVTOV1mRGlU2kZHpuRwBQsDPHMoeE96t1DzTUa4PLf8jnh2WMRCmZOFgjdPaeCcR6ZScpjFamOksXgmkXrzHFbsFRaLzW4LiTdYqK+dAC6dkShLG/Byjcd+N9996/Cx6T/gSQn8c1N07DTQIK9mLwva1yh9LtZD7JIJ3LnhoOoWD14f5BqsfZbd2WBcoebS/LJ71qIsFp+S3z3zhE9y5NB8VHyOBueAssd7KamqYECUdHcaHgP5LAlv02F5v9tYAg6GSrFObH3IDiyw4bQlWFcOOybcImmsZr6LyV4tuw+mfyjgXP0DoXzMYnbkvqWbXaCjZD81ulfcVqsrGnMBPAs/IlK8NRHBdtYUxC1co2jJt+ONl731/px1GsqQrBCwnCD+GYEZkUDPfCxVGBDXYlgi19APp4S24DotB5a7/h2LXZOheqMZQVAfIgSNDIQsRUXEFMv/H4FJLBrKi1yPHEtk1wQEKVvhMJPEuE+ROhRouzYUDWG/+wq7Pd0vSrppu+aes8yXTXy9nQfaw0K1R7GNBCSHSAMvHM7K1+na4Hw/LnjRQXP7YtAA8Xc+2OsFCPL7YE+WIpuYOKppM4Sc+YP81R8STuU8ROnqBU0rYEl56OV7v9zNsAk1Vs45b2GVuwUf3xVTlbQKdfctsQhrxo0/VAyYNBFrMReQkor+IRkUkc4qQbaVqY1dLeIuInz2uec8RL8tlRWcABjZ0oJAc6PAhP9rrfGwuiN5UPJvXCRphgGwFS1hMuuJUQRKqyO2vSoP4xy5Ip/bki/YfLDtkr7RtYJJU8zHCviV9YrP3F7C00RVFmAKwxYKqqzyJXdJ6yM0ge9t+sPHOje8Vk23nwrUvt/AJnSJQWYp9BH6dB4KfWyGi9xBWO7TiBDaZ5aV3YPJt0X0Hoe1CWqiC5bl+6oKGQXtaTy6KQfdCpzFsqFrI/8vRXwrc3ZvHGCahJYygBFyzol2u3+wH7dpTloXNE10Z/WkrqvaO5cv3MIBkxh//r3acAOwaI/y2uH5kY5hnZuZD0J1bVkkTgGZPkigI1L/N6szjkDvUzEmGMTiiHFlR7HsLgf6HMEh6/VU9DFEG4gsN8Y4eUa60camATd0K+HcIe2Zq1l5OC3rtvZhJFqGWt6zxqCP9riDy4AEH6KScdLFZUnH/zjG/yGmcWda5u/1PCb3Pu1Z3As4sGY6NcwJpiSl2P/VtpbR1psOuJ5bqCBp8kTFWJAsY3oAfwR3TBfWbN1ScRepiO2keKfclh5/3+IUwej4HkPSj+yXu0htxenRpbg4HnipnkCJtSgS4EQ2xofrnDGOvWFzy/2QXg8dgRWsYnT6FIZu1yPxByAWMLK9SpO9ChnbQKQhRKrrP4G9+XIoCbv5588IKVKeO83xITiS9K44cDAR6oQaSTFZyJl9ilW1mOyCQKsxdxP2goZeRL6zMkrdh96HWkDApCHHCox8RoSJRM0qPAdmUO59Ga/PTdUjqrdrX4Gr/hbfvui0AAfeRXO4J5v9dZAfXA4+IKLSzGu9apvCo6BfAVfefgJlEHIdhPa0YR+E9RuUF7msY1NSKXZh+fj9N+AWBBwjERXO/XhM9CxQ7RtaoY08us7IZ5OSFZFzAvprg+pQt2jSYCycE20WJzZpNNnzSlsuB/JpJ1L3gXKDleuGO8tURtgvM8NqYuHYF9Db5sdFRQ7+nSpkLJ8yLF0Ok7boLyM4j8wRo+y4jFc1rW//V3dpK+xL4gIwU6z2v1xAywVIFUaK5DvwFKotvPzhhmKoJrOk9NMVms07D4E9jpXh7jZ8QJdWIkS++yv2ux4SLlHrXHdvyKbJ5PJtJpl+OQOTjVss8/Sd/Ei6/QIaZvpy+6RrW4vIyyIOS6uNzvowCwTCAFarxNBAxfHU6Deqt00w6lJKCRd9q1VVS6i3g578bbwBVIGCK2lgisdHo4FsSmHxkG/uFyld+eyxd7Y846r8p3RRT83jCS640Qd88ZFgt5ym/ROx789yH/8RJz4swrby38TTZrP7YMyBHaVZ8VCXkaUjAPhZ+Gq409XAm7ljDZO4Q+aCii7wakP+PtnD8omwxqeQLHZT7KDJkJrjrf5BsLAXBAOlz4WMDrnEJLW/hXrPCEz4nSk+XzdAv7bIwK6x0OurZKU4U/6W+AH4oTp7Lp1MiTYGQ9KlztmTtemC9u7yX54WFl0zbdPi+LBH6rcFRNf2nhmTG1reRBLKHJ5DeAlOxbwetoh0A4bD7eGnrFyme9zFMnGfrJuGyRW6PicfA+1mZYyAndcA9jLpAI0uy0clw7Jvz53ts7JdKwUO8LnWIVg/SS3bB6nr4O6SUEIZ1N5Ee+c56JHLYZUUc0yqS3Xjvgni+1PQaze4lbZUBGicT+Ai32SP//yfsVy8o8FwDFpzJHtREXufazxdLeQSfSXJvz8DRvKuXy6+7TcFICQO35oT7UMUybrEd5zprFSPqDZgNDPUBmjG2YOHrSkSt3pKiWDRzmCJcQCOeg+i1AzBK9UEdu+aPDrirqOA1kT61b9e+RipKSkxuFHOk41OblcWiRY+pwNUwjuZroDLN+Qp1Ke6aM3DQNFqrw5UJf2IRZ+dZr8IinWFUwlJ+GvO92RCKsJ/CWbs3NKRectF6XDr+1DZ7T+3osmpMD2W18otgkueR1qBad2SNSbc5nmriBYKGCV62dEmTOD0nPXEDmZRE6PTTJFd09BiZXEi+CKXNKPHqa7tcDnCryLWFzA6A9V9stj24vdXAijISTM8Fogk88cC88Ddhd4Ag+GR1AmJLRmqR2erfID4We6yLmNCXFsn/4h5Gy7s/XV0AD6aW46odwr7IgU4dfb72r2Mca92zck5Gqgfgpv9sMGdkFeZAzkoEjj/8I1FvWd2gBS50Z+O9GWC27MBvKM2L1pNEjK23jZoV9YsZo6Lqqx6sY2lKEZclMztz2hu+MZRVgdGY5CjlKqFpMBWzhJjZzO1YE2/k/44HA2nKiEbCo3Q3PiHqjE8iKAepm+dKEm5dCdpz1fyWfMWaU3E4UkG9RmVdqasy5hDF74reL+3ITi9mfAMwqpidrxm/AoRHp2Q/xzT1uM7QkctRHuCA5CPKlnI6rLTETECZOy9D8QPwZib24E/AkzgqEoTX6s7r8OnW2yiSY1OmdmWxI06XjqYGb4AsQjdR5mb6gTeufIEiau7MPmWZVFche9MeZa/wm4q10IU22uIIg6zE8/t7yg72edf3xJWq4muSc20uS8/GZNyOkOCYrGq/07sX1bUiXlKTKWhmy2v7ANAfCHY0P/1lg/BRgRSwSStLwWc8Eo106ZI5NM/SBrBBH2drf7/EoOwCqvUxGVJpknUe+o4xzU45qTAIMbjltAKmfR1BLcmmPORYjI8FcVXVZrl859P+u3Ct8YnQ+2J0q8DqUsnNlVQPtHIznCFWIxMVCIC9XjDgHxkZsmh5tzGTqz7shyBxHwI/DvAW3IvZOpSCQuVTWqgTbh624t3WsxSEB2DDz+ffq67H+yQWgiawAR0ZMPBW73RBvthBZI50xYwELI1g3YpHvV4vWe7X4jdtvHfNfH3YSs9uOXk7aqLI4Zkfg12HlG7Apu2COHdN6eXgmDTeganelZbCwymV8npjMMdfD2aViDsEKKw4fdr5a3OMnHtdeu0iAuMP7KS5VM/M7Cb2PnLB9+mG6Uv5ZoUjEbO4cd57HaB33UAUwutEujipwQSY3OlLNOWK0fsQIiNuYvAqQsmVW9cMgwtqw/bglSuc7gTiIssm/z0+dS8FA/y5ZC9SM+jGcAFAkOwxH2Q2zW9kinxmN4kQFeWh4xJWjjKqPcz6B7YbjXeO26+ks/0naYbJYxh/VflhZKnBe4PO7Kg5eVoFHa0G9++ydOmF9ukK2lzMEGsePSwpFP2Tv1NsQXIueRWIPGi+9zSDqzkWP3iQclslzynUGM7VZEaVHDwEI2dD8IWij5gz5jQsTI4PK/svYo87LBoAoXTvivsC/UDZIZNzI1/Y3Y/gXRbvd5pzVtxgrfo3j70xpw9lC+nRzahYGZ6kaxKcmJZl0wjXtw+cJBPTcowArZr+Pj+d2w363BtU7PfjoOYfda7KdRAs+7Oz3wJUUWVWXwjIhWBsuLHSuoV/0+k6i8h9hg9Cb78q/q/55Z4067BHE+4RCHZo7+6PH33F6LFqviSuB9KbKpqneYF6umawm+Nvej9ZuvDpH21dUAbuPHkAkoch3lUUsRE1ZUFttuo0K41CFSs0fsIfgOwco/8CFrtwVVUsweX9t3+e4rTswC1rT7CMSFzSXpeX8SomOgD8q/UzeN9bShU3ghz9cgCj0Mc+B4rclHmqSwCR2CihJwIy1v5kztkvzGislM0kapolGLKmImYIEXD6PjDnjcpD0G24eAcikeXv1+jZSl+XbryqEG/x8STlCi23/XyxN/W641LTLSGt0/tvgKgyIlYFrIA+mZTc0HMdDDqPw4DMfnLEFtjly/u8A5P8pH2k9nxVnIQCY8hPMa8dybLuw/0Dsqzcc/doux1lg50QiX6K0QHK5ZqV7GxTAOFNhO7c+ijsOVdbOIOXL/sGGQSTpWhU7tJL/Znt6onUa2RfLnsUcIfTxQaj8oOPabIOQpAP0s1BiTUT6m7g3mUXSshAXluFJDQxmIO0iQjxu32pIvNFAu/DUpFUPMdiTWZAd72ssGXW+cVqY26hkNXCEn34Ab/RztMV1k9jZVmBZvm123AM+x0rlXC7g6oLHVFTnIvz6PdZeRMx4t5ZbLZDaeN2KlEwcBxVDhY1nDezAbkGYAFeFp3Jzgq77mSqVZG/RQ778ajhPP4VugM1WiebGeInQ9aKvnjQj1Qj+ytZ9EirLa4+yWIUQObdXcJ4upRT7Pp6cnIzIppYItc2T+EELhC1ZOpTf+x8G3ZNs/mM9hp6RcKnA0MbBKw4+5GAG/VKrTagLuX+kLYeVFdpUuoiB5bERaZop8sn8wRsn4QkSV2Wwq1TESmdTER1TPIBHRa0O2o3QeWVWxSt7bAAmqXsrjbwD53cOUDpP175V33+rbffqiJTzzE1rnT7a89QaEWqdxioHumuYqERoChi9Xzf6bguaZMmY0h9jbTfn73PM4IVMLUBYVituQWwSFDii1An0pVu6xpFMS3xEvThFSNxPyQJu+URH67sD0I5MwIsWwTkZNxAZjZ87g6GNBFDiwWV3NzuuFgjSlYBSvQiBZq10DJNg65HdMcDmjvn7di2e/wAMvTbph5V25DbDz+Bw3xjuPU+IXGcnfzq//3LQHqCrcnrEIGIe8xdGwLHRRdHPDPiqd/KLLzHgzcEitNTvNRQE3Z2ZOO8mAYF/gqQw1K6BAu/rJx45KS6k4dG2MaSBbtKlh0Vq51483773YptYTtQaZDZzzaeypTsX3eljsamz68EPdLwWITjvusUQM8xBgHwRXhCfq7kLPQDEy/f9WKdreh5E/nW1YJ9+smPY6rEZyByta49YrTCW/ql9IZS1C3VUHtP0Y8qly2QGaYRR5qzbvSIYHIJvbBJabiTnGwTeSdUTCCM3kAbjGEMVm61Hqed7eYDKPMY9k+NyO0/Vrt2EdIJpCC8CwD7BK+glGyPGun+ObN4PBeFoR4LxBcKCrYog22jl9RhPVSKsyKv//B9rtBNAwO8YKD5tuj82+61dECwcMaMVqDW2oEWvZgnMerm2W93512hhijhEJfcgaRFVz3ppWuPpZZ6dMPTcL7ri/ifH/D121P3sRvD4n0erDkPXzfqLAnGID7NUN0SmtGpjcEe9exP2c478PYj/uu0b1Z5qRX+2DhG4nA8JvCs0bhedsRzlZh0Oynjgu9a3Z8JdVvb4oNapteOjpThE04Tgbbrvfwya8n4+eGPmPS0/EkU0SlmFbin4Ek6yrpkGON04v+IHg3/VptxCThCLcubRAACxpXFXMyFRxlenpE4Gz+OTmVJE2lg1aq5wLGzcdeIFXh0qvCiId0KDWDiYxNCfyJDGn4jNVgHnQN72E01r9fo12LFsdnY1GH37E59dX+0jY8jxdZ/5NCmQNFmO/dqXgjd9eRfkkMkW/pxZ/XE2NWHc7aCWyrKPG4EIYTctMre/XQ3GknQPBMDjDb7yYVdoa26+dfAHEHxJytswlMzpphaIGBY3Su+CuZAZNvPUNRhsJVngK7ftKhvsgeaTeQbcsB9pH9qC5DbnuEnH6peX8He3u1lgQPvzkV1ZH6Jev6PLtaqoD+u4PropyOCOBQhOxpxkyfwSnoThqiTzlvwofCuyMFZFYsaBAyVeNr3iKbZaPgjfREuSuwJk2WqeBWIMUCa4Dex82YDi5Pj4Dq7WG1vHObiHa/p2kMeRYWAzrrVG7+PHorJkX2OiIF4iPjrzNwk9hPIvvuOX8cV1LFbfjwtMoBZkRuWBt+rGHdUiZASGY2hM9cR/kfBRgFBgpbeG5uLZhr5HMFw2jsLUJa4rckJdx39kTwVZcur5KLKpQmVo/RQYH29khJJFB5tsPgRTrb2XgXQ+/+0oow8S9/J4izBj1KL7HDZy3cnEQj0DsYS9ohcNx02aHvR5ejxKdXIoa8Lafsn2L2oTwOd1mZQbYYxr4gO3xs8lEXYZ6xMLnabCwYI4v6LQRob8X+Gelr0gRdDA1Hoc1xoDwmPqj+qekxXLjruxlvx2rCuuTmEdV2JbGgDJ/kfajUgcXAe3Ejt7O4uhQ/el0q5rxbIFxzv7L8DgKNqE7aYQgSQlIdMgdYBU9UrO6ADmr8WcjzQql6ox+4dBch5zjuOMk/KC9rfdAEGjlJbiJJIGI2Yp6sXiGfLoRdZe9clyqcnDmv3fk6GyAY9sl1lLEKAilkhn3Bv8d+G7hx+wGgdUuT/LMFIVN1vKkRGZ+n08ADYR3JQC0qtt7ZV5Ml3oykHWVkX+Dt6rH6DJD9lUMfJufhjOs0uhYCFYVA+sHcWbthRph1SUfMpTO0Wbbhb/XdN+53ryaSVltWR75MmL9TFWAzDPfFa+69tzx/EetaBb3TUrq2+xvNDThXnnkdly0QyO4i6iwHVog8beJvOqxuwsXN3K+1E58/8nlxk5UThj30Engtx9yVUjBGF9HqwPsOOTHRsNIHpjnpZvXrQsyftbYRemWC2MvwwKNRKYXR/e2046L9Utx142RqwiHvpQ30qSyOhrZ7K2mvk9M2doTthBV18Ng9nzH+zr1QeStDFxtdWk96U3btHoRiJ44Trmy4TMdUriGSi/y2nkvYDvjBY7tjWPQceYcEOVT5sUa6WfjZSyG0dBWKsprG33x24ybdiEetrpYQvqr8vd+eQWDPVbiDd3i2c2lh+CGjDZUAABZAdXzuHtge8Zd/FERwEmmaI1iU4nD9LXbxUzDK9H18/b3AyMBPi5icAd02Qok3u+qr364eP97bmf4WGKjyElB2ySKsVl5QC96YBdT5Blk3cZBa18gVRwOM7g8Fd2C4s5KMt4A6gcJGG49TWFGVIMqvq3nYPP8qh9x1UboEwXb5+ag+UvrC5qgvvXOBMYdY0bgDkHu8f913gxEAR7zWWYyPLh9niX3nqBx8rTkyRuzmJP79OCl/l5Axe2yYl2eQcOpMZH/+qVF007LESs8ueyBUEZq7hMxXOyRoM4lbyBvG+QZwsDUFhudckv1YvCNKRuGDHLjOl/oCYWaI4KN0AA3VDE3pAGF9GlZLuV7t1V7crD8jTT2V8nT1jPfUTCGIIcAy1H0ZcEar2l7YI1ZAyS7HbVS0BTGvsAur2Sa4zVgTJOCoFOCTtPAyiXPt57WAUlcJU2BWwNLNIB15PARLjW1jVieOnFfifKbpDfF7tpgjkwe2gPHY4DcOuZb28d9kaiZNRCtkjyP5mnop8YmLO0O4NJrZnKmY7/R1hws2DZYhq50XcMDko+zQGy89szRaGfHyZ4wyMAZlCFAcnE1PbcqywEesqiLFrRdYrXmS7IDX+ycdL6QL+Bj++WY5y0iY0XnZXjWRhANEy8nGB0U5m1V1tqMm9pQ/DYeoRqnj0JsBTJw2XlpiGa/9DWbSjBefehgXSIgQElXcLaDZLai/2oszh5JVpXmZQQynA0nnE5pBgEqjbplMz1pZtXQ7iK1onKbYJxviMeOcgoc7hj2NRqascBOh4xHU3lvvrSJJYsmDSikPuFBVE5jNDbiTs9ucFYTct3YFernOmLEjxLESp5OFjt3R1O9mqnsriGSEdtP26wKJIlNnhRigPUniPO06dTJHhTTpjhOmi8ZlnQ7jn0/EH2c6DRTlybEy3T2vauMle0U58WZ8WWwaYdH716sjMp5jqKK8ACjTjeWK9sa10xAj8bmHwiRDaV0cQuU37J3P3lJ0KlWMf+H0CNVtnm/p6SBEZd5YHmt4BwxolAjdymhUMompThieDWNd4vrR46Cb6os+oYmxvDhZ+uLeOTsuTTncNXaX0eIiE6KIJmQ/vuX6dhHiorrfwo196/eBd/WT5NVOwjk2dBX2judlkVlNcxcpUNZXDd6O1l/W+Z5Df/9YOukV0lBufpFbrq+73RMyRc9KwX6b3bWyRTUucc2qHqGxs6OHslaecHmZhFEYlO9CHRDNe3Y4RuTeEbsL/UEnxyhDQCdQEoXWIPFjYYXfUoFRSiQyUVKLnYgt/UwlGUVQdqd4fTQNSiHUgIvPAnpKt6p54a3n9XoWdEApXWvXxkipOb9Nxek3cRPSpxX3HtZV7iQj+Y9Cu3dRgLYEFnnXNfCPcrscOx8iD9PUcKmVJk8WJtDW8/0GQ/EL19RpEHM/7B8GVOUvhaO0mYwAeDnCPOFjTkjWjz+iBx+j0V8ftTbNt3nuefS1s6UtroSLxx82lrYf3kqxWjuQ9Nlvi0VPFmSwPFHtj6diJ37XdSPEZQohfMMV1HTRFW+zcIWksmvZQxZFmaEZ0uNzqbMx1AP/bS+mSyHZGUsMsBDNTgPWQYlqwankR070uBSIITU/Bbv2jR1siI1dW8d83WOVGhPwyS+RmnS6XzPbaQqryCQuVSQAHL5eGSkN+54II/9RJmy2O4i3QH882Bybh7ksJ7ZKg9JE/ifUT5g1MzNsIEtXBFRuuJVyIvZHxClahQazYfkhah3yihJMT6N6BrYAUVZtmzEsuikT7XP0b1dCZIkgKWi0UiEA1IPJKNyiynILaXFm7qHe1yEAg/Sux7Qrawb6G4KAuul5h7XT1Gy8Ocd3zOPuK+h8XkGOJFTwXYnmdb3s1mdL8YwRJd7LEnso0WqDF9prKqFq6iHyEmCfEc1hluwavl8Tnug3a5bWPZCj1defUIfbW+BrYBUUq9YKZZWxikrVIjnEx9VkSLjpE/RGfOlx9gt2nDuv0uZVYExmEYkvAFGfPncpSKLU81rbeUWKcZ9Qb0ryqn2rWAtXun+b8kMvNSMiJPn23I7+n/tnCj/fiiqd8BMNbq6LVudve+ntKCpMED4xs6WzZIS9AL+ithU9yVPCd/R7HHs1kwjCscDERQPcmYREQJdaQmAq9k1/BbFb1kKxsCyzeTKDqwYQDNiinfwktHsWVwQRYSxOubZPrXeCDYR2hB3+zYwwbP+/cYC4qin2/jSSD6qFqO7QdfdzL49/I+/B9yS2ZmB3ZjF8DUypTijXeBdaLuOd+I2PouJML6T931quPrJ3KStRO8SKwuxF7pPX6edZs71lcDQ3G1Sjr/jqwT5Ne482uMO27uJHkeKB+kEw4GPFvD8yZcsJ7rB3pVALDYN5T5e3KKvhyXoNwC4puXVpZU88rh/Yg+mZUxCr+jmAmip7qLzEJ0I0eFWHo/kffrf1DAIa3PztFVFM42R3tXPq7O5tB9PVAiOpC3HkEcHMd86nOnXrCiw4qq5vtuEnUSjjnVkaPdbY5YKXGSFQ/LjfcY453mFlBJXSXIqLOYugt2xe9yKRWfUTwoLXVf7lGpiOtGnF2OJFRr1uNY1L1c98kKikBbDzWOdJ8/XNHmHq9r+M691mp1INmGJpHCG7IbhBJwKNiw/7wJ9cPhdWk2SUgV+GRIFEHQZazVDY17NQ8R096hNz0e4t2sblJprte93AZyqISBwvTaO+LkXqlIZPetHI6PZK8NP+rg3NR8resE73mF3JlMJbUM+hAa9IsbkB78j+wDAe2e3nb1LvwCddSWRC+NZX8mgNvazb2F/HL/fWyNAPwVcMNcFFkkZlc6UNN/Mc3AV9qnbsU48lu53f7BtKRgyVjOn3tDUkzxDZGRM4hCbyEhbGdWkHhzAB6JYbM2od1yjAx0fW6szjWtEX+JMxFMNJAINioZV9hBoZHzG9/bOuJXita2pM3C9l5F2AUKcQ/dbKu+Wqw7o3TGNy3yT42U2N4XAxpUEwRAP7AoKxh1DaDh/RUntX42tBNZR7k9HkHWR6Ph5LLl8rS07YLXexUvCgMmdZyH4+0OwCytGr9KWYZrfNrapLHfz/+JLVKucnyV2xcbGfx48Vuk4H3datG0BmOz9dJFuG5qRURAWWTviXwDHJdPStk+OcHxFRzARF3yUds+pZPSEC5bDmKCSk4detWpVnA3qPMlglEz2NKOh0nf4ubsjvspz7Ys6vCnmSznlLVifEugCqgLudh574ES7Yso4XC5ZszSPqXcooDQWkmvU+9DdQ7pccj5vy2KSplQWgKMS6fOW8bMbmt714VN/Imx4yKK6YGc9fVVMmrBgFRXxbbVNyS/b2glsZ1kI/lmojBiYNPNrizf9pKkTt+Sk3DYfLY979wkqjuGS6RduY3g5boVoCxMQ4OxUNuQo3kNZae1UBaV6MoqWksPN/y5QJGTzwdv17U4L9b6c3xqdXpcXPtJShUTA17FoJKPhcL7dk2DYtVrj1CUY5yvKj/VPQ1hLZpTtRYJKc+judblVZg+Yrx3l03J5fR4kYrKyv8QSMOAzCOEqkDXOfjr/izaOpFMx56r4EnXbGvUemWxELOGwLZa/ENKVNCto6W9Y/2wi9i73Eq36Cgv+yb+UoPtwrzxZJbJiOlZQM2/DTUmL2ritnTjWkxC7TudrBFl+zKa9FTVMLGwuO86tgFiDTkZZWzeCWpOQoTxQDW1UBQoY7aCxBC+/EHNuhc+hFaiRNuR96+WngKYfjGcop9lMMkAMXfplVWAByWoAGIVOGZXgEvMBdF5pvcP+HkvxlJKkpHU35keTRYrSmplOytLTZ44OUSX9Wh7goJ/X8GDQJ0P7IxVZgMKlDIUH5LhMpYTsq6nx5E7y1kV/XjPNAp+dPeB936aUOZPctt0o1q68iybnC52GBWkLoNID2VL9Tai3SVbvE6hHMxky1fCF/6+TcMWWD55bdBujwz9yJsUN8xayi6vephVLSWzWGg8GoMtDe7bvJoJ/UmS92craJ7YAXFyigruhgLt3cwNxA/Vnl4Hl5q6d1SRbfN3uj0htUYmxjQ9FH1FABae0BV7wHBCqIB1eK5PgpUlZo+dZ0uFrdEcg9oSHSTN5oYxfG5VS8g0qfuPPS/HQBfIWuPvcYqRvphlcBW4CyfhN843YUoEos+KzZtcqn9usQMwPMR9L31OjR4h8xXn3sx9dF30HbRfoAd1K/QwSykDyJQ1n3gRAubg5XH6TZ3ouyG8E00xdYGZoTzvcg4L8QyAGptRISikYJnrszq1jOIfehbSTOd9TozM3BYSmIn+GTOKqjvd3tcyReoH4GQFKM6VDN+arsL1r6xnGQ8HzWn1x7eqvi+/lH5lmh2Yj21HuLMjRSUwEvPYVz4xKTswmH7CSW1dl/jiuF2axxrG/Pmb7KgAfRWd9UblyChTYf11Bkypkkx+g47E54NugZ5iB6LKd5jzkhtONZqr1s/M+xIReMG+Ke6jxfdPX56jg49HtDDSM5+YR4SyEvY1BM2otloKDQspZCUSMbek7jRMy4xvd86dC3NQX4GgEUX5Onp/ipNucHAxNRctm84/AgGHRMXqY401ThKYOVRunnKWgZ78eOiQKXi/dFx1IkRWwwAx8C1i39Cn1jmWPoDfQf4kV0kkjxvoFRvxEcv8xKcFgV0ctbkm0QHK5bWo7jYpmTsx86ZK9YVlCCL6Yiz31nk2CkW6DanHF+yW5PwEneujgvoQ/OIJiVHjzIblr2Z0TdVGG2OK2Y4cS43G1qJCJtQZDLESGPlQJwjov3l30LXRKfBJgYJDDmwgtgRO7ZG/+lTnmUuYxlZlotKt9ZYHI8ziaMsZUTC4g1GBKmtbn7ZaMp80uVFB35a754ObI3G4KftcTvP6Jxoxd3kyoHieG0QWa3L+DeRpfbeNNbFeiwjQPT07PBR3H1XsjT1fFwe09LUJPv5MTaUWX7bC6NznmFBeaG2DoLgWiA5+S8Hyr16h/kVvSs7E9WKch/iu0esyHed8XXOPo/8f7aj/Jare0i8bwg2I5RjZR2afVbHpcpBurMkje35bzgMEvMpBTjwMjPDxT2GfRnVZW5cBLI0hC7Rj0NGDZAVrtXNliOhU4S8lWhqzm8ydBUhn/1+zJGXc2Pgwp+AuhFr1dKV5PA9Xc/+URcF9zxqxGM4Iyd/uqpt2i+R5u63siNq2XrTDjP6pRFj+FvXbZAmFmtF8Er/yT4YC5YfNnKEPiKabaNcyMmm5pYXotEeX7MzpgAyFgO/FiGAfVJZNIJkVtScYE3t/3pog8stOAXsjRJQeFe+O+JsBnlA45enh5vW5okzlH5xK/EsN3x4eTKtEL5ApDqHibBSk3OZnjK1AaW30/Nj5FqnKYFDkOk8ERwsvRqeZ9qcseUqLHigoqUsSVlYIm/Zv1XUK+FPcOcAZxtz51/d/yBb6OBjAi0YLwiflM7WzYefxAS+NWMl8rBsbgfct0/6LUXbO/VZvCZ0k42EZ3DJ726KjIdwEUpTquN66NvOW35wSSuLGt0lnQjzdrAO0zOvySvJxFJNghLDwcMd4MQtOwkA/ujv127FFM+xg9xkowtx9RXye+JZYxsg5j16rDCV9I+fSSp60VoCv+omGN6gSHU3SfCpY6VLHid2p82n/Cp2TbtGzxBp3GQpglYMLw9YgP5vOiMms82MwrJxSjjITLBBvYPYMSRXa8UpqTlrPFLTSvtfnOlK0Ll0JLd3XAoEddTUnec2O867CkKI1N1UxlCOOntHeqC2PimHCU4/17hmT2WPpQVSK8ZbyR1Awg/fmxXSwwmqRWRdClyWKCa13pw0itX6S8NRjqCqiRDsQiqTFl008Ry50kEU35Quc8bEJHJ7UYLWLtMW9BT+d3oGa7eSYCp5Hfr9jodje9gv9C6NvZGE5GnhFmrHMuHGl9HMf32QIOBYyx70pioTW94GSJUhTSXX+1XJ2+/VMDZW5a+Vfn5qp6vHIoR4t0YUntgCK+x5EUyhg1cYZ7Xk3bQ2IgrIVTfvKhQn5gmaSS97t7KP8Eg8ov3upRszjWPmsSVmc/NRkniw7bRzDyxRj6eHwsAbpCOgsYWW8n1+QSeVqCer1iyIIJULQOoed/OEpKlxjDdwjcMjD11FFAQlpraZbQM9gXalb5+wHpadw1ngAo7Q+PtbpCKVAM2uLaISZ+jaRlnwODLlJFIEdWi0lMG9DD8LJgl9madfGtjbuBQhbrfH4w84O8/sACD+FHPN/QMB61JulrI8rlbkz3i+cj7TBfGCJ4Imp4GOBw66jlSaZYTBsvxulbYe/Sewg1evMqInTcTriq4Wunv06r5C9YUGP6iv0xFTD7QUgbugy+rW1p4cmEZWRg4ZhA7pCJ/L3tEpmWWf9rqk+YzgKeEAAFuWEOnh0KYBK9+Zb20oVXGBhNylvbD2lZcGlNGhdaUlAiACWpj9Y/NS0E9GaMAM/fF2PIJPK1Aw/TcWkohbRFc12RTRy+ayJUW76fPNMJx3Su4BM6jjEprWVV5OI6G3E368QHd0s8aaZ7BdO4lTIgErF+aS9kYnbzOpN1j1yHe7VtVeYHGXcuYGiae4UH3au5sNP3B6E+Zs5WTfrY6BAY1cEKLZJKtGAGJMxldCblbt6DEWAiFyH6bK0dIMRoWaB8Cz+DbFoeaQzlv2vqRROl64q8wMx9I0pmutSRquBFy//rAWT2geYVHK850rIc8AdOL7TlJse0LXKyUOPXq7KA0M7lsUsA7hdhBjNx3V9dTJhH7IMEPOsOFZ74LoKiftKGuWnZA5aPzoWduAxGLmLAwaaFAST/ayV18qrYnPtT8uRFtl0Oee3wPeko2rVKokUJVV3f9Th+rYf3un57uaJ9iXP90PMdOzT2Zli8O5x4NufnwKFiwykARwq+0vxxNCPqucaSt/ypPSjIZGKR3qpUW28cnQHA6tLhIM6wJrvSLv969ud68VJNjVwQotkkq0Y301NUaBMxsYsGsxO6jYofiH78FaHf6OI3QobLb6jEqSt6VxzQn9IEdxNflCVpR1RVGokYxC8bHj5WxB1QuJBJT+54sbCSqMQ7t5Md0JgBwK12UbYcVzxa2sSPSHZ6Ap8eTN7uxCQNJDRhUbYuVDkgFVTPn1owsueQjkDYnMxZROzELb2loit4771PkIuOZCseqUQzfEZ+PYU93GMUlt+4fTPRcXr92GibtKoOdmZy0+U50ehjaYWSvliYWX1t3/OIXGIyQPxuc8rJRhFeSCwA6mrZvbpSnhL5zdlZwRrxKtQHHLW9SChEj3gu5p7QIh4bbHxRpG1NYDX0/M9qDPboc74PpycRqF4tzaY3yLJmkQus2gHQvTYZkCTvuglKV3FrVQ675AOhJSfElZQUHsRuPfIJpQjaA2L9OmKRj6R7dFsRvxkR7+Z4wyUz61zvj7lG1bFkcJBZ5GUFU/LSsAB5BS8YWVPR1w4raa7L1u6O2B9gI98JYeO9pFMxA18ihuPuGB1HYVkv3CJcwsS8THJ3cOQaV+GVqTx3CG2CPLI5WMpl6CREhMgxlYKjJ98oMBSbl8+J65H5wBh8Ogw8g8AGdpgnON2ryRU/qvmA2aXlFFqsyVNiB7e/vthjdEAJbFhimiqeOqm0y12veMdy3CKo3soBeQcANRvizqB68Z2UvTuSjQXPRutMobAjYUrA8WSBOU0bZjw5fNUtR1xHGTKDv6oGcCDLgbU+ZnNezVxVJwudveebTogjy+Z+1BtUZNUvBIDkPsocXCNEh5OMBgBI5rhC6a3QIfkWGpapCv7UBZ8BgyglbA5+ydbYfAmcg+0n0DKhwRxSjCX00Zd+FW3g0pRfz6DvEJTAYb9lqOPwswegP48o7v7/ZDvSpFMt97b0jXxMFmO9iBu4bersYmoEg+XKLE0geJb6BDoom5amYBkp+f1iycMT6AnIXnOG/pTB36KQWqJJN/RmdYNDv8Exy/l//1EkO64m7YTJ6jnGXu/nO8GHhbuC7INyJEaTCql90RVkNrYLLoCSi8W8xBK/Bh5NecaIK383/Bni5JwWP42tOBJGFMM84jpxSxQzGJr2bKDjtHq0Af3nIN86LPqHw23LaEpBEfTSnm1PAjJd3/FCobBcAy0NhwSPcePAZm3mxfvs/JZIU+eYMaGtIVL/CDmit/yCdr5PnTd7JCs3Im8cdzwJEgqtBH2+loO4iKh4cxaAh4k9LXPkZU5VVykNuEOS/g18p1Pk1lBWvLBfGHzam7EkxheVifumYiDq85ZJbYOu2U0coRQemOm+Z7rEreq16PJqoccLmEgjv6ufzsJxZNs6kd+FzC2jM2VqG2owbCa1vB22sC4WuLI8vr8EW9k6pyCN6gEEDI5ysfgb/4ZpD9xSOrXPJw7AuOxfNxCMGdjZlzlRLj3iaxfnDoNJoLxKtJW/DlDY03wlFPhWeeMMV/GJbLXKLd/2f7fVwKOfovwW0UN7LEQyRMFc1XoLqpLO0L5Rlo9jhiwqq4UaWvseessoPADM9WHwVzl/mW6zW8e759dIqMBu/nSh+IeDNmYWcZ4+4zjRCAAuP+7SqxqiU2hP88YQdOsebaJ4GccGXP8MbqqeMRO7AAAAp2Mu4t+24FRMlgK0deQVNibWwhBhTSKJiKs/4OWRr9K+CfK6uOS19nYiEtF/lMUFzz7tj46zPryQ/3Z0NUdVhLKYwYm3HOf1VC0bAcJ28/vP3ERXin+hnD/qru5Z3HQefRLGNMbPlmdQL63gI2qcVYDpzbHoZ4bzotuv5/tqdhTD8IPt8iy+gIPPFlvPFTZ3DpDqvAO/zLalI2rDzfu3D3aWlP0MXe13s4X3IUGbYF89q++QknVS/4E1ygHz3oNG7M3dxRqbua/EMROPWc514vLedgfM9dXniVX+EUeQDaVKQo3sU4gUte923tl6IldNyQ7FRTK0S/KkObggfbwndzf5yNvrj0UI9kTUYfoLaRFh+5OjPDM8QPPTZNTaMTVzx3jcmcekO1dTirZ0Mj4ZewQt/wbOkKW3P9Xkn+K6IAA1yLV0zovnDxFqlJUNFMqMJxCPycswV9+trFtDHYkQlTEnD6i8eVyTtEVi3ePtmdBCBiwepGpB9W5ogHfngYkYks8n9oRRcap+8vhju5H2Gsp/y/eN4tarWD9V32xV47aulqpzVge3wO1zXUDtC/9a0MmK7PuAtii4R40erWsZTHMiSJmczY1NGSQ7jNEW17JqpsVwKotCULThW592+qPQVWZWIl69fjH8+CKUj0ei6Gmvd7Z/f34AWPPk7J09nyhQCv0efYfZjU3p+247aFE4ZYhOgvEYA/TByLo7H3SILUKI4pf0uisj8Hhqt7HNx2rNN5sxg6OQ+J6pWVNr0PUAqGmLJaKqcVOU9YwBvqnH13UTQ00gQEQr00Ko2VJ6M/bXSbwDA2r0LK6TEp2PYt3WbltmmDHzih8Tk9YcrsenGePATgACId6CyOh6CYMMJcYNAxn9uiArIFI5JIQowi6LAUshAOlTBeoAQLpvGp0iKkMJ6ip1zV7AI+6a7aN+7jw54PSyxnb89fykETv7cHJ1puwNX5Tn6gK89FjNY9EOSyPuK0noy0NIm9JBnHiMlePIyfEZIBQ1rwAAhj75yusfQW8PO/74aE10yPtJFfkTa2uBN+5dNwGR7o7t4c0IK2JzFA481O2JaE2V0a0RM82m1Xy+eqGIqH0NedV02WFZlqe3RPYdSvlFxa8cet3Z8qfMkMvU4mGuAa3BvltAiLBXOKZxvIu+PYc2s9t8AsLqMHXlJMJT6KBFaI/orckaYadiBaaNtQOTrThMnsZ2rwQDwhOrx1Y1weCKNgXYAsZK1RsFb3vnmEEguSn4mhTIgHQp7enLQfX8bhoKj1BP1ydW3t3EvcRtIRRjR0mqfZzvngW6iNwvttfRMK0b4FEQDs25ysm/jSeWZ2E2fPJ4KiiA2MLD0Z5/OTiW78jtCEMAAKg3YrwX8dcVNGgJJpd9DKDdv4lI8Kn+jIxXRGa6k8GkANSnaJ/aAAHt9v+PIfEnQh7Q1blbIgJW/TdEuFy/5aAnPcOtRVh8uMQHQ0YKALhPERdhfSXqxemlthMU+V5MJp1Feh/spPiJksbAd4pKWgRhZWDgaV7IYuqTaBcxtYF2eCMVxgnPCvYTePsDVChRN5GUudzoVTdYP9IPeGO56XH+xT5+jk598no181yQcWMAGmB2AVmMtQre5FItvPR+QGJaSCXUON19s/rUjsbM+wkhovhCs095hr2aH/I4UGcyY1gVkNVaSTTBZ0Znfvq0s0+VWrBRRDRXyWmOwvlueWTL1VhWwfv3P+UbAQuKAKj+DcCkpoBr6+t+KHMsp6y0Ye7XQ7MzcxusZ7JioFywqwzhmiQH1aZdAEd2gXwFpV+bjrT3486qROddlv5Eex+9hrJbJ6ITqAtBnhzNg/YgoPZU5oAAAAAAAA==;" vertex="1" parent="1">
          <mxGeometry x="80" y="2960" width="831" height="463.98" as="geometry" />
        </mxCell>
      </root>
    </mxGraphModel>
  </diagram>
</mxfile>
